<svg width="558" height="554" viewBox="0 0 558 554" fill="none" xmlns="http://www.w3.org/2000/svg">
<path d="M279.056 522.189C419.51 522.189 533.37 460.047 533.37 383.39C533.37 306.733 419.51 244.591 279.056 244.591C138.602 244.591 24.7417 306.733 24.7417 383.39C24.7417 460.047 138.602 522.189 279.056 522.189Z" fill="#F5F5F5"/>
<path d="M326.742 500.816C371.477 500.816 407.742 480.031 407.742 454.391C407.742 428.751 371.477 407.966 326.742 407.966C282.008 407.966 245.743 428.751 245.743 454.391C245.743 480.031 282.008 500.816 326.742 500.816Z" fill="#E0E0E0"/>
<path d="M261.289 398.127L407.34 314.384C409.07 313.398 409.07 311.791 407.34 310.805L343.282 274.086C342.314 273.594 341.243 273.337 340.157 273.337C339.07 273.337 337.999 273.594 337.032 274.086L190.981 357.884C189.251 358.87 189.251 360.477 190.981 361.463L255.051 398.182C256.02 398.665 257.092 398.912 258.177 398.903C259.261 398.893 260.328 398.627 261.289 398.127Z" fill="#E0E0E0"/>
<path d="M138.217 414.924L44.852 361.407C43.1334 360.421 43.1334 358.815 44.852 357.829L196.807 270.718C197.776 270.232 198.846 269.979 199.931 269.979C201.017 269.979 202.087 270.232 203.056 270.718L296.421 324.234C298.151 325.231 298.151 326.827 296.421 327.824L144.466 414.924C143.497 415.41 142.427 415.663 141.341 415.663C140.256 415.663 139.186 415.41 138.217 414.924Z" fill="#E0E0E0"/>
<path d="M187.399 262.518L47.1287 342.937C46.5959 343.279 46.1523 343.742 45.8342 344.287C45.5161 344.832 45.3325 345.444 45.2985 346.073V349.74C45.3325 350.369 45.5161 350.981 45.8342 351.526C46.1523 352.071 46.5959 352.534 47.1287 352.876L139.355 405.75C139.921 406.034 140.546 406.182 141.18 406.182C141.814 406.182 142.439 406.034 143.004 405.75L283.308 325.32C283.837 324.975 284.278 324.512 284.594 323.967C284.91 323.423 285.092 322.812 285.127 322.184V318.517C285.093 317.888 284.909 317.276 284.591 316.731C284.273 316.186 283.829 315.723 283.297 315.381L191.048 262.518C190.482 262.234 189.857 262.086 189.223 262.086C188.589 262.086 187.964 262.234 187.399 262.518Z" fill="#37474F"/>
<path d="M139.355 397.894L47.1287 345.031C46.9094 344.956 46.7193 344.815 46.5847 344.627C46.4501 344.439 46.3777 344.215 46.3777 343.984C46.3777 343.754 46.4501 343.529 46.5847 343.341C46.7193 343.154 46.9094 343.012 47.1287 342.937L187.399 262.518C187.964 262.234 188.589 262.086 189.223 262.086C189.857 262.086 190.482 262.234 191.048 262.518L283.297 315.381C283.512 315.459 283.698 315.6 283.83 315.787C283.961 315.973 284.032 316.195 284.032 316.423C284.032 316.65 283.961 316.872 283.83 317.059C283.698 317.245 283.512 317.387 283.297 317.464L143.004 397.894C142.439 398.178 141.814 398.326 141.18 398.326C140.546 398.326 139.921 398.178 139.355 397.894Z" fill="#455A64"/>
<path d="M141.297 398.326V406.171C140.628 406.206 139.962 406.065 139.366 405.761L47.1175 352.876C46.5889 352.533 46.1489 352.072 45.8329 351.529C45.5169 350.986 45.3338 350.377 45.2985 349.751V346.084C45.3296 345.523 45.4776 344.974 45.733 344.472C45.9885 343.971 46.3459 343.527 46.7827 343.17C46.1355 343.757 46.2471 344.522 47.1175 345.02L139.366 397.894C139.96 398.205 140.626 398.354 141.297 398.326Z" fill="#263238"/>
<path d="M261.267 322.982L257.428 325.198L271.054 223.129L274.904 220.924L261.267 322.982Z" fill="#E0E0E0"/>
<path d="M257.428 325.198L175.212 278.086L188.838 176.028L271.054 223.129L257.428 325.198Z" fill="#FAFAFA"/>
<path d="M274.904 220.924L271.054 223.129L188.838 176.028L192.744 173.79L274.904 220.924Z" fill="#EBEBEB"/>
<path d="M266.758 224.669L191.405 181.49L179.04 274.751L254.392 317.863L266.758 224.669Z" fill="#3B7BE1"/>
<path opacity="0.8" d="M266.758 224.669L191.405 181.49L179.04 274.751L254.392 317.863L266.758 224.669Z" fill="white"/>
<path d="M187.12 238.829L206.46 220.636C208.48 218.741 210.868 219.329 211.761 221.943L225.622 262.474C225.688 262.689 225.833 262.872 226.028 262.988C226.223 263.103 226.454 263.142 226.676 263.098C226.898 263.054 227.096 262.929 227.231 262.749C227.367 262.568 227.429 262.344 227.407 262.12L226.805 253.577L239.136 244.957C239.642 244.578 240.226 244.317 240.847 244.192C241.467 244.068 242.108 244.083 242.722 244.238C243.336 244.392 243.907 244.681 244.393 245.083C244.879 245.486 245.268 245.992 245.531 246.563L260.039 275.371L254.883 314.151L182.466 272.712L187.12 238.829Z" fill="#3B7BE1"/>
<path d="M252.685 224.924C249.337 222.974 246.1 224.304 245.576 227.882C245.051 231.461 247.428 235.96 250.866 237.932C254.303 239.904 257.484 238.586 257.975 234.985C258.466 231.384 256.089 226.852 252.685 224.924Z" fill="#3B7BE1"/>
<path d="M194.82 183.463L182.466 272.712L179.051 274.684L191.405 181.49L194.82 183.463Z" fill="#E0E0E0"/>
<path d="M182.466 272.712L254.883 314.196L254.392 317.863L179.051 274.684L182.466 272.712Z" fill="#EBEBEB"/>
<path d="M240.822 334.749L236.971 336.954L250.609 234.896L254.459 232.691L240.822 334.749Z" fill="#E0E0E0"/>
<path d="M236.971 336.954L154.756 289.842L168.382 187.784L250.609 234.896L236.971 336.954Z" fill="#FAFAFA"/>
<path d="M254.459 232.691L250.609 234.896L168.382 187.784L172.288 185.546L254.459 232.691Z" fill="#EBEBEB"/>
<path d="M246.312 236.425L170.96 193.257L158.595 286.507L233.947 329.63L246.312 236.425Z" fill="#3B7BE1"/>
<path opacity="0.8" d="M246.312 236.425L170.96 193.257L158.595 286.507L233.947 329.63L246.312 236.425Z" fill="white"/>
<path d="M166.663 250.585L185.993 232.403C188.013 230.497 190.457 231.084 191.294 233.699L205.154 274.23C205.221 274.445 205.366 274.628 205.56 274.744C205.755 274.859 205.986 274.898 206.209 274.854C206.431 274.81 206.629 274.685 206.764 274.505C206.899 274.324 206.962 274.1 206.94 273.875L206.337 265.333L218.669 256.724C219.175 256.345 219.761 256.084 220.382 255.959C221.003 255.835 221.645 255.85 222.259 256.004C222.874 256.159 223.446 256.447 223.933 256.85C224.42 257.252 224.811 257.758 225.075 258.33L239.583 287.138L234.438 325.918L162.01 284.446L166.663 250.585Z" fill="#3B7BE1"/>
<path d="M232.228 236.669C228.825 234.719 225.655 236.037 225.131 239.616C224.606 243.195 226.972 247.704 230.421 249.677C233.869 251.649 237.038 250.319 237.518 246.718C237.998 243.117 235.632 238.619 232.228 236.669Z" fill="#3B7BE1"/>
<path d="M174.375 195.219L162.01 284.479L158.606 286.44L170.96 193.257L174.375 195.219Z" fill="#E0E0E0"/>
<path d="M162.01 284.479L234.427 325.951L233.947 329.63L158.606 286.44L162.01 284.479Z" fill="#EBEBEB"/>
<path d="M220.365 346.516L216.526 348.721L230.153 246.663L234.003 244.447L220.365 346.516Z" fill="#E0E0E0"/>
<path d="M216.526 348.721L134.299 301.609L147.937 199.551L230.153 246.663L216.526 348.721Z" fill="#FAFAFA"/>
<path d="M234.003 244.447L230.153 246.663L147.937 199.551L151.843 197.313L234.003 244.447Z" fill="#EBEBEB"/>
<path d="M225.856 248.192L150.504 205.013L138.138 298.274L213.491 341.386L225.856 248.192Z" fill="#3B7BE1"/>
<path opacity="0.8" d="M225.856 248.192L150.504 205.013L138.138 298.274L213.491 341.386L225.856 248.192Z" fill="white"/>
<path d="M146.196 262.352L165.525 244.159C167.545 242.264 169.922 242.851 170.826 245.466L184.676 285.997C184.742 286.212 184.887 286.395 185.082 286.51C185.277 286.626 185.508 286.665 185.73 286.621C185.952 286.577 186.15 286.452 186.285 286.271C186.42 286.091 186.483 285.866 186.461 285.642L185.859 277.1L198.202 268.479C198.707 268.101 199.291 267.84 199.912 267.715C200.532 267.591 201.173 267.606 201.787 267.761C202.401 267.915 202.972 268.204 203.458 268.606C203.944 269.009 204.333 269.514 204.596 270.086L219.104 298.894L213.96 337.674L141.542 296.202L146.196 262.352Z" fill="#3B7BE1"/>
<path d="M211.783 248.425C208.38 246.475 205.199 247.804 204.674 251.383C204.15 254.962 206.527 259.46 209.964 261.433C213.402 263.405 216.582 262.086 217.062 258.485C217.542 254.884 215.176 250.408 211.783 248.425Z" fill="#3B7BE1"/>
<path d="M153.919 206.985L141.565 296.246L138.15 298.207L150.504 205.013L153.919 206.985Z" fill="#E0E0E0"/>
<path d="M141.565 296.246L213.982 337.718L213.491 341.386L138.15 298.207L141.565 296.246Z" fill="#EBEBEB"/>
<path d="M199.909 358.272L196.07 360.477L209.708 258.419L213.547 256.214L199.909 358.272Z" fill="#E0E0E0"/>
<path d="M196.07 360.477L113.854 313.365L127.481 211.307L209.708 258.419L196.07 360.477Z" fill="#FAFAFA"/>
<path d="M213.547 256.214L209.708 258.419L127.481 211.307L131.387 209.069L213.547 256.214Z" fill="#EBEBEB"/>
<path d="M205.411 259.948L130.059 216.78L117.693 310.029L193.046 353.153L205.411 259.948Z" fill="#3B7BE1"/>
<path opacity="0.8" d="M205.411 259.948L130.059 216.78L117.693 310.029L193.046 353.153L205.411 259.948Z" fill="white"/>
<path d="M125.762 274.108L145.08 255.948C147.1 254.053 149.544 254.629 150.381 257.244L164.242 297.775C164.308 297.99 164.453 298.173 164.648 298.288C164.843 298.404 165.074 298.443 165.296 298.399C165.518 298.355 165.716 298.23 165.851 298.05C165.987 297.869 166.049 297.645 166.027 297.42L165.425 288.878L177.701 280.269C178.207 279.89 178.792 279.629 179.414 279.504C180.035 279.38 180.676 279.395 181.291 279.549C181.906 279.704 182.477 279.992 182.965 280.395C183.452 280.797 183.842 281.303 184.107 281.875L198.615 310.683L193.459 349.463L121.108 308.024L125.762 274.108Z" fill="#3B7BE1"/>
<path d="M191.327 260.192C187.923 258.242 184.743 259.56 184.229 263.139C183.716 266.718 186.071 271.227 189.508 273.2C192.945 275.172 196.137 273.853 196.617 270.241C197.097 266.629 194.731 262.142 191.327 260.192Z" fill="#3B7BE1"/>
<path d="M133.462 218.752L121.108 308.002L117.693 309.963L130.059 216.78L133.462 218.752Z" fill="#E0E0E0"/>
<path d="M121.108 308.002L193.526 349.474L193.046 353.153L117.693 309.963L121.108 308.002Z" fill="#EBEBEB"/>
<path d="M179.464 370.028L175.625 372.244L189.251 270.175L193.102 267.97L179.464 370.028Z" fill="#E0E0E0"/>
<path d="M175.625 372.244L93.3981 325.132L107.036 223.074L189.251 270.175L175.625 372.244Z" fill="#FAFAFA"/>
<path d="M193.102 267.97L189.251 270.175L107.036 223.074L110.93 220.835L193.102 267.97Z" fill="#EBEBEB"/>
<path d="M184.955 271.715L109.602 228.536L97.2371 321.796L172.589 364.909L184.955 271.715Z" fill="#3B7BE1"/>
<path opacity="0.8" d="M184.955 271.715L109.602 228.536L97.2371 321.796L172.589 364.909L184.955 271.715Z" fill="white"/>
<path d="M105.317 285.864L124.646 267.671C126.666 265.776 129.043 266.363 129.936 268.978L143.797 309.509C143.863 309.724 144.008 309.907 144.203 310.022C144.397 310.138 144.628 310.177 144.851 310.133C145.073 310.089 145.271 309.964 145.406 309.783C145.541 309.602 145.604 309.378 145.582 309.154L144.98 300.611L157.356 292.002C157.862 291.632 158.445 291.379 159.061 291.26C159.678 291.141 160.314 291.159 160.923 291.314C161.532 291.469 162.098 291.756 162.581 292.155C163.065 292.554 163.453 293.054 163.717 293.62L178.225 322.428L173.08 361.208L100.663 319.769L105.317 285.864Z" fill="#3B7BE1"/>
<path d="M170.871 271.948C167.523 270.009 164.298 271.327 163.773 274.906C163.249 278.485 165.626 282.983 169.063 284.955C172.5 286.928 175.681 285.609 176.161 282.008C176.641 278.407 174.275 273.898 170.871 271.948Z" fill="#3B7BE1"/>
<path d="M113.017 230.508L100.663 319.769L97.2483 321.73L109.602 228.536L113.017 230.508Z" fill="#E0E0E0"/>
<path d="M100.663 319.769L173.08 361.241L172.589 364.909L97.2483 321.73L100.663 319.769Z" fill="#EBEBEB"/>
<path d="M159.008 381.795L155.169 384L168.795 281.942L172.645 279.737L159.008 381.795Z" fill="#E0E0E0"/>
<path d="M155.169 384L72.9529 336.887L86.5793 234.83L168.795 281.942L155.169 384Z" fill="#FAFAFA"/>
<path d="M172.645 279.737L168.795 281.942L86.5793 234.83L90.4853 232.591L172.645 279.737Z" fill="#EBEBEB"/>
<path d="M164.498 283.471L89.1573 240.303L76.7808 333.552L152.133 376.676L164.498 283.471Z" fill="#3B7BE1"/>
<path opacity="0.8" d="M164.498 283.471L89.1573 240.303L76.7808 333.552L152.133 376.676L164.498 283.471Z" fill="white"/>
<path d="M84.816 297.631L104.145 279.449C106.165 277.554 108.609 278.13 109.446 280.745L123.352 321.32C123.418 321.535 123.563 321.718 123.758 321.833C123.952 321.949 124.183 321.988 124.406 321.944C124.628 321.9 124.826 321.775 124.961 321.595C125.096 321.414 125.159 321.19 125.137 320.965L124.534 312.423L136.81 303.814C137.316 303.435 137.9 303.174 138.521 303.049C139.141 302.925 139.782 302.94 140.396 303.095C141.01 303.249 141.581 303.538 142.067 303.94C142.553 304.343 142.942 304.849 143.205 305.42L157.713 334.228L152.557 373.008L80.207 331.525L84.816 297.631Z" fill="#3B7BE1"/>
<path d="M150.426 283.714C147.078 281.764 143.841 283.083 143.328 286.673C142.815 290.263 145.169 294.75 148.607 296.722C152.044 298.695 155.224 297.376 155.715 293.764C156.207 290.152 153.829 285.665 150.426 283.714Z" fill="#3B7BE1"/>
<path d="M92.5611 242.275L80.207 331.525L76.792 333.497L89.1573 240.303L92.5611 242.275Z" fill="#E0E0E0"/>
<path d="M80.207 331.525L152.624 372.997L152.133 376.676L76.792 333.497L80.207 331.525Z" fill="#EBEBEB"/>
<path d="M187.399 133.603L47.1287 214.021C46.5944 214.364 46.1499 214.829 45.8317 215.376C45.5135 215.923 45.3307 216.537 45.2985 217.168V220.835C45.3325 221.466 45.516 222.08 45.8341 222.626C46.1521 223.173 46.5957 223.638 47.1287 223.982L139.355 276.845C139.921 277.129 140.546 277.277 141.18 277.277C141.814 277.277 142.439 277.129 143.004 276.845L283.308 196.415C283.837 196.071 284.278 195.607 284.594 195.063C284.91 194.518 285.092 193.907 285.127 193.28V189.612C285.093 188.983 284.909 188.371 284.591 187.826C284.273 187.281 283.829 186.818 283.297 186.476L191.048 133.614C190.483 133.328 189.859 133.178 189.225 133.176C188.591 133.174 187.965 133.32 187.399 133.603Z" fill="#37474F"/>
<path d="M139.355 268.978L47.1287 216.115C46.9094 216.04 46.7193 215.899 46.5847 215.711C46.4501 215.523 46.3777 215.299 46.3777 215.068C46.3777 214.838 46.4501 214.613 46.5847 214.426C46.7193 214.238 46.9094 214.097 47.1287 214.021L187.399 133.603C187.964 133.318 188.589 133.17 189.223 133.17C189.857 133.17 190.482 133.318 191.048 133.603L283.297 186.465C284.312 187.041 284.312 187.972 283.297 188.559L143.004 268.978C142.44 269.268 141.815 269.419 141.18 269.419C140.545 269.419 139.919 269.268 139.355 268.978Z" fill="#455A64"/>
<path d="M141.297 269.41V277.266C140.628 277.292 139.963 277.147 139.366 276.845L47.1175 223.96C46.5889 223.617 46.1489 223.156 45.8329 222.613C45.5169 222.07 45.3338 221.461 45.2985 220.835V217.168C45.3296 216.607 45.4776 216.058 45.733 215.557C45.9885 215.055 46.3459 214.611 46.7827 214.254C46.1355 214.841 46.2471 215.606 47.1175 216.115L139.366 268.978C139.958 269.294 140.626 269.444 141.297 269.41Z" fill="#263238"/>
<path d="M261.267 193.235L257.428 195.44L271.054 93.3822L274.904 91.1773L261.267 193.235Z" fill="#E0E0E0"/>
<path d="M257.428 195.44L175.212 148.328L188.838 46.2701L271.054 93.3822L257.428 195.44Z" fill="#FAFAFA"/>
<path d="M274.904 91.1773L271.054 93.3822L188.838 46.2701L192.744 44.0319L274.904 91.1773Z" fill="#EBEBEB"/>
<path d="M266.758 94.9113L191.405 51.7436L179.04 144.993L254.392 188.116L266.758 94.9113Z" fill="#3B7BE1"/>
<path opacity="0.8" d="M266.758 94.9113L191.405 51.7436L179.04 144.993L254.392 188.116L266.758 94.9113Z" fill="white"/>
<path d="M187.12 109.072L206.46 90.856C208.48 88.9502 210.868 89.5375 211.761 92.1524L225.622 132.683C225.688 132.898 225.833 133.081 226.028 133.197C226.223 133.312 226.454 133.351 226.676 133.307C226.898 133.263 227.096 133.138 227.231 132.958C227.367 132.777 227.429 132.553 227.407 132.328L226.805 123.786L239.125 115.232C239.629 114.851 240.213 114.588 240.833 114.461C241.454 114.335 242.095 114.349 242.709 114.502C243.324 114.655 243.895 114.944 244.382 115.347C244.868 115.749 245.257 116.255 245.52 116.828L260.028 145.636L254.872 184.416L182.466 142.932L187.12 109.072Z" fill="#3B7BE1"/>
<path d="M252.685 95.155C249.337 93.205 246.1 94.5235 245.576 98.1023C245.051 101.681 247.428 106.191 250.866 108.163C254.303 110.135 257.484 108.806 257.975 105.205C258.466 101.604 256.089 97.1051 252.685 95.155Z" fill="#3B7BE1"/>
<path d="M194.82 53.7048L182.466 142.965L179.051 144.926L191.405 51.7436L194.82 53.7048Z" fill="#E0E0E0"/>
<path d="M182.466 142.965L254.883 184.438L254.392 188.116L179.051 144.926L182.466 142.965Z" fill="#EBEBEB"/>
<path d="M240.822 204.991L236.971 207.196L250.609 105.138L254.459 102.933L240.822 204.991Z" fill="#E0E0E0"/>
<path d="M236.971 207.196L154.756 160.095L168.382 58.037L250.609 105.138L236.971 207.196Z" fill="#FAFAFA"/>
<path d="M254.459 102.933L250.609 105.138L168.382 58.037L172.288 55.7989L254.459 102.933Z" fill="#EBEBEB"/>
<path d="M246.312 106.678L170.96 63.4995L158.595 156.749L233.947 199.872L246.312 106.678Z" fill="#3B7BE1"/>
<path opacity="0.8" d="M246.312 106.678L170.96 63.4995L158.595 156.749L233.947 199.872L246.312 106.678Z" fill="white"/>
<path d="M166.663 120.827L185.993 102.645C188.013 100.75 190.457 101.338 191.294 103.953L205.154 144.483C205.22 144.701 205.365 144.886 205.562 145.002C205.758 145.119 205.992 145.158 206.216 145.112C206.44 145.066 206.638 144.939 206.773 144.755C206.907 144.57 206.966 144.343 206.94 144.118L206.337 135.586L218.669 126.966C219.175 126.587 219.761 126.326 220.382 126.201C221.003 126.077 221.645 126.092 222.259 126.247C222.874 126.401 223.446 126.69 223.933 127.092C224.42 127.495 224.811 128 225.075 128.572L239.583 157.38L234.438 196.16L162.01 154.688L166.663 120.827Z" fill="#3B7BE1"/>
<path d="M232.228 106.911C228.825 104.961 225.655 106.29 225.131 109.869C224.606 113.448 226.972 117.947 230.421 119.919C233.869 121.891 237.038 120.573 237.518 116.972C237.998 113.371 235.632 108.861 232.228 106.911Z" fill="#3B7BE1"/>
<path d="M174.375 65.4717L162.01 154.721L158.606 156.693L170.96 63.4995L174.375 65.4717Z" fill="#E0E0E0"/>
<path d="M162.01 154.721L234.427 196.194L233.947 199.872L158.606 156.693L162.01 154.721Z" fill="#EBEBEB"/>
<path d="M220.365 216.758L216.526 218.963L230.153 116.905L234.003 114.7L220.365 216.758Z" fill="#E0E0E0"/>
<path d="M216.526 218.963L134.299 171.851L147.937 69.7929L230.153 116.905L216.526 218.963Z" fill="#FAFAFA"/>
<path d="M234.003 114.7L230.153 116.905L147.937 69.7929L151.843 67.5548L234.003 114.7Z" fill="#EBEBEB"/>
<path d="M225.856 118.434L150.504 75.2554L138.138 168.516L213.491 211.628L225.856 118.434Z" fill="#3B7BE1"/>
<path opacity="0.8" d="M225.856 118.434L150.504 75.2554L138.138 168.516L213.491 211.628L225.856 118.434Z" fill="white"/>
<path d="M146.196 132.594L165.525 114.412C167.545 112.506 169.922 113.094 170.826 115.708L184.698 156.228C184.765 156.443 184.909 156.626 185.104 156.742C185.299 156.857 185.53 156.896 185.752 156.852C185.975 156.808 186.173 156.683 186.308 156.503C186.443 156.322 186.505 156.098 186.484 155.873L185.881 147.331L198.224 138.722C198.728 138.341 199.312 138.077 199.932 137.951C200.553 137.824 201.194 137.838 201.808 137.992C202.422 138.145 202.994 138.434 203.48 138.836C203.967 139.239 204.356 139.745 204.619 140.317L219.127 169.125L213.982 207.905L141.565 166.433L146.196 132.594Z" fill="#3B7BE1"/>
<path d="M211.783 118.678C208.38 116.728 205.199 118.046 204.674 121.625C204.15 125.204 206.527 129.714 209.964 131.686C213.402 133.658 216.582 132.328 217.062 128.727C217.542 125.126 215.176 120.628 211.783 118.678Z" fill="#3B7BE1"/>
<path d="M153.919 77.2276L141.565 166.488L138.15 168.449L150.504 75.2554L153.919 77.2276Z" fill="#E0E0E0"/>
<path d="M141.565 166.488L213.982 207.961L213.491 211.628L138.15 168.449L141.565 166.488Z" fill="#EBEBEB"/>
<path d="M199.909 228.514L196.07 230.719L209.708 128.661L213.547 126.456L199.909 228.514Z" fill="#E0E0E0"/>
<path d="M196.07 230.719L113.854 183.618L127.481 81.5599L209.708 128.661L196.07 230.719Z" fill="#FAFAFA"/>
<path d="M213.547 126.456L209.708 128.661L127.481 81.5599L131.387 79.3217L213.547 126.456Z" fill="#EBEBEB"/>
<path d="M205.411 130.19L130.059 87.0223L117.693 180.272L193.046 223.395L205.411 130.19Z" fill="#3B7BE1"/>
<path opacity="0.8" d="M205.411 130.19L130.059 87.0223L117.693 180.272L193.046 223.395L205.411 130.19Z" fill="white"/>
<path d="M125.762 144.35L145.08 126.168C147.1 124.273 149.544 124.861 150.381 127.475L164.242 168.006C164.308 168.221 164.453 168.404 164.648 168.52C164.843 168.635 165.074 168.674 165.296 168.63C165.518 168.586 165.716 168.461 165.851 168.281C165.987 168.1 166.049 167.876 166.027 167.651L165.425 159.109L177.701 150.489C178.207 150.11 178.792 149.849 179.414 149.724C180.035 149.6 180.676 149.615 181.291 149.769C181.906 149.924 182.477 150.212 182.965 150.615C183.452 151.017 183.842 151.523 184.107 152.095L198.615 180.903L193.459 219.683L121.041 178.2L125.762 144.35Z" fill="#3B7BE1"/>
<path d="M191.327 130.434C187.923 128.484 184.743 129.813 184.229 133.392C183.716 136.971 186.071 141.469 189.508 143.442C192.945 145.414 196.137 144.095 196.617 140.494C197.097 136.893 194.731 132.384 191.327 130.434Z" fill="#3B7BE1"/>
<path d="M133.462 88.9946L121.108 178.244L117.693 180.216L130.059 87.0223L133.462 88.9946Z" fill="#E0E0E0"/>
<path d="M121.108 178.244L193.526 219.727L193.046 223.395L117.693 180.216L121.108 178.244Z" fill="#EBEBEB"/>
<path d="M179.464 240.281L175.625 242.486L189.251 140.428L193.102 138.223L179.464 240.281Z" fill="#E0E0E0"/>
<path d="M175.625 242.486L93.3981 195.374L107.036 93.3158L189.251 140.428L175.625 242.486Z" fill="#FAFAFA"/>
<path d="M193.102 138.223L189.251 140.428L107.036 93.3158L110.93 91.0776L193.102 138.223Z" fill="#EBEBEB"/>
<path d="M184.955 141.957L109.602 98.7893L97.2371 192.039L172.589 235.162L184.955 141.957Z" fill="#3B7BE1"/>
<path opacity="0.8" d="M184.955 141.957L109.602 98.7893L97.2371 192.039L172.589 235.162L184.955 141.957Z" fill="white"/>
<path d="M105.317 156.117L124.646 137.935C126.666 136.029 129.043 136.616 129.936 139.231L143.797 179.762C143.863 179.977 144.008 180.16 144.203 180.275C144.397 180.391 144.628 180.43 144.851 180.386C145.073 180.342 145.271 180.217 145.406 180.036C145.541 179.856 145.604 179.631 145.582 179.407L144.98 170.865L157.356 162.256C157.861 161.874 158.446 161.611 159.067 161.485C159.688 161.358 160.33 161.372 160.945 161.525C161.56 161.679 162.133 161.967 162.62 162.37C163.108 162.772 163.498 163.279 163.762 163.851L178.27 192.659L173.125 231.439L100.663 190.011L105.317 156.117Z" fill="#3B7BE1"/>
<path d="M170.871 142.201C167.523 140.251 164.298 141.569 163.773 145.148C163.249 148.727 165.626 153.236 169.063 155.209C172.5 157.181 175.681 155.851 176.161 152.25C176.641 148.649 174.275 144.151 170.871 142.201Z" fill="#3B7BE1"/>
<path d="M113.017 100.75L100.663 190.011L97.2483 191.972L109.602 98.7893L113.017 100.75Z" fill="#E0E0E0"/>
<path d="M100.663 190.011L173.08 231.483L172.589 235.162L97.2483 191.972L100.663 190.011Z" fill="#EBEBEB"/>
<path d="M159.008 252.037L155.169 254.242L168.795 152.184L172.645 149.979L159.008 252.037Z" fill="#E0E0E0"/>
<path d="M155.169 254.242L72.9529 207.141L86.5793 105.083L168.795 152.184L155.169 254.242Z" fill="#FAFAFA"/>
<path d="M172.645 149.979L168.795 152.184L86.5793 105.083L90.4853 102.845L172.645 149.979Z" fill="#EBEBEB"/>
<path d="M164.498 153.724L89.1573 110.545L76.7808 203.794L152.133 246.918L164.498 153.724Z" fill="#3B7BE1"/>
<path opacity="0.8" d="M164.498 153.724L89.1573 110.545L76.7808 203.794L152.133 246.918L164.498 153.724Z" fill="white"/>
<path d="M84.816 167.884L104.19 149.691C106.21 147.796 108.654 148.383 109.491 150.998L123.352 191.529C123.418 191.744 123.563 191.927 123.758 192.042C123.952 192.158 124.183 192.197 124.406 192.153C124.628 192.109 124.826 191.984 124.961 191.803C125.096 191.623 125.159 191.398 125.137 191.174L124.534 182.632L136.81 174.011C137.316 173.633 137.9 173.372 138.521 173.247C139.141 173.123 139.782 173.138 140.396 173.292C141.01 173.447 141.581 173.736 142.067 174.138C142.553 174.541 142.942 175.046 143.205 175.618L157.713 204.426L152.557 243.206L80.207 201.767L84.816 167.884Z" fill="#3B7BE1"/>
<path d="M150.426 154.012C147.078 152.062 143.841 153.392 143.328 156.97C142.815 160.549 145.169 165.048 148.607 167.02C152.044 168.992 155.224 167.674 155.715 164.073C156.207 160.472 153.829 155.907 150.426 154.012Z" fill="#3B7BE1"/>
<path d="M92.5611 112.517L80.207 201.767L76.792 203.739L89.1573 110.545L92.5611 112.517Z" fill="#E0E0E0"/>
<path d="M80.207 201.767L152.624 243.239L152.133 246.918L76.792 203.739L80.207 201.767Z" fill="#EBEBEB"/>
<path d="M408.679 50.2146V298.728C408.582 300.519 408.06 302.263 407.157 303.817C406.253 305.37 404.993 306.69 403.479 307.669L259.682 390.016C259.167 390.336 258.571 390.505 257.963 390.504C257.738 390.5 257.514 390.474 257.294 390.426C257.14 390.391 256.99 390.339 256.847 390.271L256.58 390.116L256.267 389.916C256.165 389.837 256.068 389.752 255.977 389.661C255.573 389.278 255.251 388.818 255.028 388.31C254.663 387.486 254.477 386.595 254.481 385.695V138.5C254.579 136.709 255.101 134.965 256.005 133.412C256.909 131.858 258.168 130.538 259.682 129.558L403.479 47.2341C403.982 46.8855 404.563 46.6639 405.171 46.5886C405.78 46.5133 406.398 46.5866 406.972 46.8019C407.132 46.865 407.283 46.9509 407.418 47.0568C407.549 47.1501 407.666 47.2621 407.764 47.3892C407.822 47.4468 407.874 47.5099 407.92 47.5775C407.99 47.6565 408.047 47.7463 408.088 47.8434C408.22 48.0496 408.321 48.2735 408.389 48.5082C408.455 48.652 408.496 48.8054 408.512 48.9625C408.52 48.978 408.524 48.9951 408.524 49.0124C408.524 49.0297 408.52 49.0468 408.512 49.0622C408.555 49.2178 408.581 49.3775 408.59 49.5387C408.632 49.7622 408.662 49.9878 408.679 50.2146Z" fill="#455A64"/>
<path d="M406.972 46.8019C406.398 46.5865 405.78 46.5133 405.171 46.5886C404.563 46.6639 403.982 46.8855 403.479 47.234L259.682 129.525C258.158 130.504 256.889 131.828 255.979 133.388C255.069 134.948 254.545 136.7 254.448 138.5V155.342L247.808 151.475V134.722C247.914 132.944 248.439 131.216 249.34 129.677C250.241 128.137 251.494 126.829 252.997 125.858L396.838 43.5112C397.383 43.1173 398.027 42.8809 398.699 42.8281C399.37 42.7753 400.044 42.9082 400.644 43.212C401.548 43.766 405.867 46.2258 406.972 46.8019Z" fill="#3B7BE1"/>
<path d="M408.668 50.1813C408.668 46.9238 406.336 45.6053 403.479 47.2451L259.682 129.525C258.159 130.506 256.891 131.83 255.981 133.39C255.072 134.949 254.546 136.7 254.448 138.5V155.342L408.668 67.1226V50.1813Z" fill="#3B7BE1"/>
<g opacity="0.4">
<path opacity="0.4" d="M403.479 47.2451L259.682 129.525C258.159 130.48 256.901 131.798 256.022 133.359L249.426 129.558C250.288 128.017 251.532 126.72 253.042 125.791L396.838 43.5112C397.383 43.1173 398.027 42.8809 398.699 42.8281C399.37 42.7753 400.044 42.9082 400.644 43.212C401.581 43.7771 405.9 46.2147 406.994 46.8019C406.417 46.5814 405.794 46.5064 405.18 46.5837C404.567 46.6611 403.982 46.8883 403.479 47.2451Z" fill="white"/>
</g>
<path opacity="0.15" d="M247.83 151.497V134.722C247.9 132.894 248.446 131.115 249.415 129.558L256.033 133.337C255.055 134.889 254.508 136.67 254.448 138.5V155.342L247.83 151.497Z" fill="black"/>
<path d="M377.364 69.394C375.746 70.3248 374.429 73.0948 374.429 75.5656C374.429 78.0364 375.746 79.3106 377.364 78.3799C378.982 77.4492 380.299 74.6792 380.299 72.2084C380.299 69.7375 378.982 68.4633 377.364 69.394Z" fill="#455A64"/>
<path d="M387.933 63.3222C386.315 64.2529 384.998 67.0229 384.998 69.4938C384.998 71.9646 386.315 73.2388 387.933 72.3081C389.551 71.3774 390.868 68.6074 390.868 66.1365C390.868 63.6657 389.562 62.3915 387.933 63.3222Z" fill="#455A64"/>
<path d="M398.512 57.2504C396.883 58.1811 395.577 60.9511 395.577 63.4219C395.577 65.8928 396.883 67.167 398.512 66.2362C400.142 65.3055 401.448 62.5355 401.448 60.0647C401.448 57.5938 400.131 56.3307 398.512 57.2504Z" fill="#455A64"/>
<path d="M256.39 390.016C256.2 389.894 255.977 389.772 255.743 389.639C255.263 389.351 254.716 389.041 254.136 388.742L253.265 388.254H253.198C252.718 387.988 252.261 387.711 251.825 387.479L250.709 386.836C250.5 386.706 250.284 386.588 250.062 386.481C249.721 386.3 249.418 386.055 249.169 385.761C248.883 385.454 248.65 385.102 248.477 384.72C248.074 383.863 247.869 382.928 247.875 381.983V151.519L254.448 155.342V385.717C254.471 386.614 254.656 387.5 254.995 388.332C255.218 388.84 255.54 389.3 255.943 389.684C256.021 389.788 256.12 389.875 256.234 389.938C256.28 389.975 256.333 390.001 256.39 390.016Z" fill="#37474F"/>
<path d="M267.249 169.358C267.256 169.019 267.348 168.688 267.516 168.394L271.255 160.715C271.291 160.628 271.348 160.552 271.422 160.494C271.422 160.494 271.5 160.427 271.523 160.427C271.562 160.391 271.614 160.37 271.668 160.37C271.722 160.37 271.774 160.391 271.813 160.427C271.858 160.479 271.892 160.539 271.913 160.603C271.934 160.668 271.942 160.736 271.936 160.804V163.375C271.944 163.643 271.918 163.911 271.858 164.172C271.799 164.419 271.709 164.657 271.59 164.881L269.626 168.937L271.59 170.732C271.713 170.838 271.806 170.976 271.858 171.131C271.922 171.361 271.948 171.601 271.936 171.84V174.421C271.932 174.602 271.891 174.779 271.813 174.942C271.753 175.086 271.652 175.209 271.523 175.297H271.422C271.396 175.309 271.368 175.316 271.339 175.316C271.31 175.316 271.281 175.309 271.255 175.297L267.516 171.895C267.421 171.817 267.346 171.716 267.299 171.602C267.252 171.488 267.235 171.364 267.249 171.241V169.358Z" fill="#3B7BE1"/>
<path d="M280.92 150.101C280.989 149.84 281.086 149.587 281.21 149.347C281.324 149.098 281.515 148.892 281.757 148.76L283.163 147.951C283.203 147.917 283.255 147.898 283.308 147.898C283.361 147.898 283.412 147.917 283.453 147.951C283.541 148.056 283.585 148.191 283.576 148.328C283.585 148.424 283.585 148.52 283.576 148.616L277.159 175.729C277.103 175.982 277.017 176.227 276.902 176.46C276.777 176.718 276.579 176.933 276.333 177.081L274.982 177.856C274.942 177.891 274.891 177.909 274.837 177.909C274.784 177.909 274.733 177.891 274.692 177.856C274.646 177.805 274.612 177.746 274.591 177.681C274.569 177.616 274.562 177.547 274.569 177.479C274.56 177.384 274.56 177.287 274.569 177.191L280.92 150.101Z" fill="#3B7BE1"/>
<path d="M290.841 157.757C290.833 158.095 290.741 158.427 290.573 158.721L286.812 166.399C286.772 166.484 286.715 166.56 286.645 166.621C286.589 166.621 286.566 166.688 286.544 166.688C286.504 166.722 286.452 166.741 286.399 166.741C286.346 166.741 286.294 166.722 286.254 166.688C286.166 166.578 286.122 166.44 286.131 166.3V163.729C286.123 163.461 286.149 163.193 286.209 162.931C286.268 162.685 286.358 162.446 286.477 162.222L288.441 158.167L286.477 156.372C286.354 156.265 286.261 156.128 286.209 155.973C286.145 155.743 286.119 155.503 286.131 155.264V152.682C286.135 152.502 286.176 152.325 286.254 152.162C286.314 152.018 286.415 151.895 286.544 151.807H286.645C286.698 151.787 286.758 151.787 286.812 151.807L290.551 155.209C290.646 155.287 290.721 155.388 290.768 155.502C290.815 155.616 290.832 155.74 290.818 155.862L290.841 157.757Z" fill="#3B7BE1"/>
<path d="M301.231 155.973C301.281 155.932 301.344 155.909 301.409 155.909C301.475 155.909 301.538 155.932 301.588 155.973C301.644 156.036 301.687 156.11 301.713 156.19C301.74 156.27 301.751 156.355 301.744 156.439V159.275C301.741 159.498 301.688 159.718 301.588 159.918C301.515 160.094 301.391 160.244 301.231 160.35L299.467 161.369C299.417 161.414 299.351 161.438 299.283 161.438C299.216 161.438 299.15 161.414 299.099 161.369C299.044 161.308 299.003 161.235 298.978 161.157C298.953 161.079 298.945 160.996 298.954 160.915V158.067C298.954 157.849 299.004 157.633 299.099 157.436C299.172 157.253 299.301 157.099 299.467 156.993L301.231 155.973Z" fill="#3B7BE1"/>
<path d="M307.123 152.594C307.172 152.55 307.236 152.526 307.302 152.526C307.368 152.526 307.431 152.55 307.48 152.594C307.539 152.656 307.583 152.729 307.61 152.809C307.637 152.89 307.646 152.975 307.637 153.059V155.896C307.639 156.119 307.586 156.34 307.48 156.538C307.411 156.716 307.286 156.868 307.123 156.97L305.36 157.99C305.311 158.033 305.247 158.057 305.181 158.057C305.115 158.057 305.052 158.033 305.003 157.99C304.945 157.928 304.901 157.854 304.874 157.774C304.847 157.693 304.838 157.608 304.847 157.524V154.677C304.851 154.457 304.904 154.242 305.003 154.045C305.072 153.864 305.197 153.709 305.36 153.602L307.123 152.594Z" fill="#3B7BE1"/>
<path d="M313.016 149.214C313.067 149.17 313.132 149.145 313.2 149.145C313.268 149.145 313.333 149.17 313.384 149.214C313.438 149.279 313.479 149.353 313.503 149.433C313.528 149.512 313.537 149.596 313.529 149.68V152.516C313.53 152.739 313.48 152.958 313.384 153.159C313.311 153.338 313.182 153.49 313.016 153.591L311.252 154.61C311.203 154.654 311.14 154.678 311.074 154.678C311.008 154.678 310.944 154.654 310.895 154.61C310.84 154.547 310.798 154.473 310.773 154.393C310.748 154.313 310.74 154.228 310.75 154.145V151.308C310.75 151.09 310.8 150.874 310.895 150.677C310.965 150.496 311.09 150.341 311.252 150.234L313.016 149.214Z" fill="#3B7BE1"/>
<path d="M268.822 190.066L355.223 140.55C356.238 139.963 357.075 140.373 357.075 141.469C357.028 142.086 356.835 142.682 356.514 143.211C356.192 143.741 355.75 144.188 355.223 144.516L268.822 194.044C267.807 194.631 266.981 194.21 266.981 193.113C267.026 192.498 267.216 191.901 267.536 191.372C267.856 190.843 268.296 190.396 268.822 190.066Z" fill="#3B7BE1"/>
<path d="M296.544 221.855L382.944 172.327C383.96 171.74 384.797 172.161 384.797 173.258C384.75 173.873 384.558 174.468 384.236 174.996C383.914 175.523 383.472 175.968 382.944 176.294L296.544 225.821C295.528 226.409 294.702 225.988 294.702 224.891C294.747 224.277 294.937 223.681 295.257 223.154C295.577 222.626 296.018 222.181 296.544 221.855Z" fill="white"/>
<path d="M296.544 253.632L337.902 229.943C338.918 229.356 339.744 229.777 339.744 230.874C339.698 231.489 339.508 232.086 339.188 232.615C338.869 233.144 338.428 233.591 337.902 233.921L296.544 257.599C295.528 258.186 294.702 257.776 294.702 256.679C294.748 256.064 294.938 255.467 295.258 254.938C295.577 254.409 296.018 253.962 296.544 253.632Z" fill="#E0E0E0"/>
<path d="M362.388 136.439L396.805 116.639C397.82 116.052 398.646 116.473 398.646 117.57C398.602 118.184 398.412 118.779 398.092 119.307C397.772 119.834 397.331 120.279 396.805 120.606L362.388 140.417C361.361 141.004 360.535 140.583 360.535 139.486C360.581 138.869 360.772 138.272 361.094 137.743C361.416 137.213 361.859 136.767 362.388 136.439Z" fill="#3B7BE1"/>
<path d="M268.822 364.842L355.223 315.315C356.238 314.738 357.075 315.148 357.075 316.245C357.028 316.862 356.835 317.458 356.514 317.987C356.192 318.517 355.75 318.964 355.223 319.292L268.822 368.82C267.807 369.396 266.981 368.986 266.981 367.889C267.026 367.274 267.216 366.677 267.536 366.148C267.856 365.619 268.296 365.172 268.822 364.842Z" fill="#3B7BE1"/>
<path d="M362.388 311.215L396.805 291.404C397.82 290.817 398.646 291.227 398.646 292.324C398.601 292.939 398.411 293.535 398.091 294.065C397.771 294.594 397.331 295.041 396.805 295.371L362.388 315.171C361.361 315.758 360.535 315.348 360.535 314.251C360.582 313.636 360.775 313.041 361.097 312.514C361.419 311.986 361.861 311.541 362.388 311.215Z" fill="#3B7BE1"/>
<path d="M362.388 263.626L396.805 243.826C397.82 243.239 398.646 243.66 398.646 244.757C398.601 245.373 398.411 245.969 398.091 246.498C397.771 247.027 397.331 247.475 396.805 247.804L362.388 267.604C361.361 268.191 360.535 267.77 360.535 266.673C360.581 266.057 360.772 265.459 361.094 264.93C361.416 264.401 361.859 263.954 362.388 263.626Z" fill="#3B7BE1"/>
<path d="M362.388 279.515L396.805 259.715C397.82 259.128 398.646 259.538 398.646 260.635C398.601 261.25 398.411 261.847 398.091 262.376C397.771 262.905 397.331 263.352 396.805 263.682L362.388 283.493C361.361 284.069 360.535 283.659 360.535 282.562C360.581 281.945 360.772 281.348 361.094 280.819C361.416 280.289 361.859 279.843 362.388 279.515Z" fill="#3B7BE1"/>
<path d="M333.037 280.402L352.366 269.322C353.393 268.734 354.218 269.155 354.218 270.252C354.173 270.869 353.981 271.466 353.659 271.996C353.337 272.525 352.894 272.972 352.366 273.299L333.037 284.379C332.01 284.967 331.184 284.545 331.184 283.449C331.23 282.832 331.422 282.235 331.743 281.705C332.065 281.176 332.508 280.729 333.037 280.402Z" fill="#3B7BE1"/>
<path d="M268.822 205.999L319.176 177.092C320.192 176.504 321.017 176.925 321.017 178.011C320.973 178.627 320.783 179.224 320.463 179.753C320.143 180.282 319.702 180.729 319.176 181.058L268.822 209.966C267.807 210.553 266.981 210.143 266.981 209.046C267.026 208.431 267.216 207.835 267.536 207.305C267.856 206.776 268.296 206.329 268.822 205.999Z" fill="#3B7BE1"/>
<path opacity="0.6" d="M268.822 205.999L319.176 177.092C320.192 176.504 321.017 176.925 321.017 178.011C320.973 178.627 320.783 179.224 320.463 179.753C320.143 180.282 319.702 180.729 319.176 181.058L268.822 209.966C267.807 210.553 266.981 210.143 266.981 209.046C267.026 208.431 267.216 207.835 267.536 207.305C267.856 206.776 268.296 206.329 268.822 205.999Z" fill="white"/>
<path d="M268.822 221.855L285.919 212.049C286.946 211.462 287.772 211.872 287.772 212.969C287.733 213.593 287.544 214.199 287.222 214.737C286.9 215.275 286.453 215.728 285.919 216.06L268.822 225.877C267.807 226.453 266.981 226.043 266.981 224.946C267.019 224.323 267.206 223.718 267.526 223.18C267.847 222.643 268.291 222.189 268.822 221.855Z" fill="#3B7BE1"/>
<path opacity="0.6" d="M268.822 221.855L285.919 212.049C286.946 211.462 287.772 211.872 287.772 212.969C287.733 213.593 287.544 214.199 287.222 214.737C286.9 215.275 286.453 215.728 285.919 216.06L268.822 225.877C267.807 226.453 266.981 226.043 266.981 224.946C267.019 224.323 267.206 223.718 267.526 223.18C267.847 222.643 268.291 222.189 268.822 221.855Z" fill="white"/>
<path d="M268.822 237.744L285.919 227.938C286.946 227.351 287.772 227.76 287.772 228.857C287.726 229.474 287.534 230.071 287.212 230.601C286.891 231.13 286.447 231.577 285.919 231.904L268.822 241.721C267.807 242.309 266.981 241.887 266.981 240.791C267.026 240.175 267.216 239.579 267.536 239.05C267.856 238.52 268.296 238.073 268.822 237.744Z" fill="#3B7BE1"/>
<path opacity="0.6" d="M268.822 237.744L285.919 227.938C286.946 227.351 287.772 227.76 287.772 228.857C287.726 229.474 287.534 230.071 287.212 230.601C286.891 231.13 286.447 231.577 285.919 231.904L268.822 241.721C267.807 242.309 266.981 241.887 266.981 240.791C267.026 240.175 267.216 239.579 267.536 239.05C267.856 238.52 268.296 238.073 268.822 237.744Z" fill="white"/>
<path d="M268.822 253.632L285.919 243.826C286.946 243.239 287.772 243.649 287.772 244.746C287.726 245.363 287.534 245.96 287.212 246.49C286.891 247.019 286.447 247.466 285.919 247.793L268.822 257.61C267.807 258.197 266.981 257.776 266.981 256.679C267.026 256.064 267.216 255.467 267.536 254.938C267.856 254.409 268.296 253.962 268.822 253.632Z" fill="#3B7BE1"/>
<path opacity="0.6" d="M268.822 253.632L285.919 243.815C286.946 243.228 287.772 243.649 287.772 244.746C287.726 245.363 287.534 245.96 287.212 246.49C286.891 247.019 286.447 247.466 285.919 247.793L268.822 257.599C267.807 258.186 266.981 257.776 266.981 256.679C267.026 256.064 267.216 255.467 267.536 254.938C267.856 254.409 268.296 253.962 268.822 253.632Z" fill="white"/>
<path d="M296.544 237.744L346.942 208.836C347.958 208.249 348.783 208.659 348.783 209.755C348.738 210.371 348.548 210.967 348.228 211.496C347.908 212.026 347.468 212.473 346.942 212.802L296.544 241.71C295.528 242.297 294.702 241.887 294.702 240.791C294.747 240.175 294.937 239.578 295.257 239.049C295.576 238.52 296.017 238.072 296.544 237.744Z" fill="#3B7BE1"/>
<path d="M354.096 204.725L376.014 192.205C377.029 191.618 377.855 192.039 377.855 193.135C377.81 193.751 377.62 194.347 377.3 194.876C376.98 195.406 376.539 195.853 376.014 196.182L354.096 208.703C353.08 209.29 352.254 208.869 352.254 207.772C352.3 207.157 352.49 206.56 352.81 206.031C353.13 205.502 353.57 205.055 354.096 204.725Z" fill="#3B7BE1"/>
<path d="M268.822 269.521L285.919 259.715C286.946 259.128 287.772 259.538 287.772 260.635C287.729 261.255 287.539 261.857 287.217 262.391C286.895 262.924 286.45 263.374 285.919 263.704L268.822 273.521C267.807 274.108 266.981 273.687 266.981 272.59C267.023 271.971 267.211 271.37 267.531 270.837C267.851 270.303 268.294 269.853 268.822 269.521Z" fill="#3B7BE1"/>
<path opacity="0.6" d="M268.822 269.521L285.919 259.715C286.946 259.128 287.772 259.538 287.772 260.635C287.729 261.255 287.539 261.857 287.217 262.391C286.895 262.924 286.45 263.374 285.919 263.704L268.822 273.521C267.807 274.108 266.981 273.687 266.981 272.59C267.023 271.971 267.211 271.37 267.531 270.837C267.851 270.303 268.294 269.853 268.822 269.521Z" fill="white"/>
<path d="M326.374 172.981L348.292 160.461C349.308 159.884 350.145 160.294 350.145 161.391C350.097 162.008 349.905 162.604 349.583 163.133C349.262 163.662 348.82 164.109 348.292 164.438L326.374 176.959C325.359 177.546 324.533 177.125 324.533 176.028C324.578 175.412 324.769 174.816 325.088 174.287C325.408 173.758 325.849 173.31 326.374 172.981Z" fill="#3B7BE1"/>
<path opacity="0.6" d="M326.374 172.981L348.292 160.461C349.308 159.884 350.145 160.294 350.145 161.391C350.097 162.008 349.905 162.604 349.583 163.133C349.262 163.662 348.82 164.109 348.292 164.438L326.374 176.959C325.359 177.546 324.533 177.125 324.533 176.028C324.578 175.412 324.769 174.816 325.088 174.287C325.408 173.758 325.849 173.31 326.374 172.981Z" fill="white"/>
<path d="M317.335 257.577L367.733 228.669C368.749 228.082 369.575 228.503 369.575 229.6C369.529 230.215 369.339 230.812 369.019 231.341C368.699 231.87 368.259 232.317 367.733 232.647L317.335 261.554C316.319 262.131 315.493 261.721 315.493 260.624C315.539 260.008 315.729 259.412 316.049 258.883C316.369 258.354 316.809 257.906 317.335 257.577Z" fill="#E0E0E0"/>
<path d="M346.406 256.868L396.805 227.96C397.82 227.373 398.658 227.794 398.658 228.891C398.611 229.506 398.419 230.101 398.097 230.629C397.775 231.156 397.332 231.601 396.805 231.927L346.406 260.834C345.391 261.422 344.565 261.012 344.565 259.915C344.61 259.299 344.801 258.703 345.121 258.174C345.44 257.644 345.881 257.197 346.406 256.868Z" fill="white"/>
<path d="M374.887 224.569L396.805 212.049C397.82 211.462 398.646 211.872 398.646 212.969C398.601 213.584 398.411 214.181 398.091 214.71C397.771 215.239 397.331 215.686 396.805 216.016L374.887 228.536C373.871 229.123 373.045 228.713 373.045 227.616C373.09 227.001 373.28 226.404 373.6 225.875C373.92 225.345 374.361 224.898 374.887 224.569Z" fill="#E0E0E0"/>
<path d="M374.887 287.504L396.805 274.983C397.82 274.396 398.646 274.806 398.646 275.903C398.601 276.519 398.411 277.115 398.091 277.644C397.771 278.173 397.331 278.621 396.805 278.95L374.887 291.47C373.871 292.058 373.045 291.637 373.045 290.54C373.09 289.926 373.28 289.33 373.6 288.803C373.92 288.275 374.361 287.83 374.887 287.504Z" fill="#E0E0E0"/>
<path d="M296.544 205.966L346.942 177.058C347.958 176.471 348.783 176.892 348.783 177.989C348.738 178.605 348.548 179.201 348.228 179.73C347.908 180.259 347.468 180.707 346.942 181.036L296.544 209.944C295.528 210.52 294.702 210.11 294.702 209.013C294.748 208.398 294.938 207.801 295.258 207.272C295.577 206.743 296.018 206.296 296.544 205.966Z" fill="#3B7BE1"/>
<path opacity="0.6" d="M296.544 205.966L346.942 177.058C347.958 176.471 348.783 176.892 348.783 177.989C348.738 178.605 348.548 179.201 348.228 179.73C347.908 180.259 347.468 180.707 346.942 181.036L296.544 209.944C295.528 210.52 294.702 210.11 294.702 209.013C294.748 208.398 294.938 207.801 295.258 207.272C295.577 206.743 296.018 206.296 296.544 205.966Z" fill="white"/>
<path d="M354.096 172.959L376.014 160.438C377.029 159.851 377.855 160.261 377.855 161.358C377.81 161.974 377.62 162.57 377.3 163.099C376.98 163.628 376.539 164.076 376.014 164.405L354.096 176.925C353.08 177.513 352.254 177.103 352.254 176.006C352.297 175.39 352.486 174.792 352.806 174.263C353.126 173.733 353.568 173.286 354.096 172.959Z" fill="#3B7BE1"/>
<path opacity="0.6" d="M354.096 172.959L376.014 160.438C377.029 159.851 377.855 160.261 377.855 161.358C377.81 161.974 377.62 162.57 377.3 163.099C376.98 163.628 376.539 164.076 376.014 164.405L354.096 176.925C353.08 177.513 352.254 177.103 352.254 176.006C352.297 175.39 352.486 174.792 352.806 174.263C353.126 173.733 353.568 173.286 354.096 172.959Z" fill="white"/>
<path opacity="0.6" d="M296.544 237.744L346.942 208.836C347.958 208.249 348.783 208.659 348.783 209.755C348.738 210.371 348.548 210.967 348.228 211.496C347.908 212.026 347.468 212.473 346.942 212.802L296.544 241.71C295.528 242.297 294.702 241.887 294.702 240.791C294.747 240.175 294.937 239.578 295.257 239.049C295.576 238.52 296.017 238.072 296.544 237.744Z" fill="white"/>
<path opacity="0.6" d="M354.096 204.725L376.014 192.205C377.029 191.618 377.855 192.039 377.855 193.135C377.81 193.751 377.62 194.347 377.3 194.876C376.98 195.406 376.539 195.853 376.014 196.182L354.096 208.703C353.08 209.29 352.254 208.869 352.254 207.772C352.3 207.157 352.49 206.56 352.81 206.031C353.13 205.502 353.57 205.055 354.096 204.725Z" fill="white"/>
<path d="M468.597 70.912L456.578 77.7484L444.492 76.6404C444.351 76.6279 444.209 76.6508 444.079 76.7068C445.05 76.1418 455.585 70.1586 456.02 69.9259C456.171 69.8359 456.348 69.8006 456.522 69.8262L468.597 70.912Z" fill="#3B7BE1"/>
<path opacity="0.5" d="M468.597 70.912L456.578 77.7484L444.492 76.6404C444.351 76.6279 444.209 76.6508 444.079 76.7068C445.05 76.1418 455.585 70.1586 456.02 69.9259C456.171 69.8359 456.348 69.8006 456.522 69.8262L468.597 70.912Z" fill="white"/>
<path d="M505.95 73.3053L462.493 48.3864L453.855 53.3724L457.035 117.393L475.583 139.198L494.131 138.655L502.769 133.669L505.95 73.3053Z" fill="#3B7BE1"/>
<path opacity="0.5" d="M505.95 73.3053L497.323 78.2913L453.855 53.3724L462.493 48.3864L505.95 73.3053Z" fill="white"/>
<path opacity="0.15" d="M505.95 73.3053L497.323 78.2913L494.131 138.655L502.769 133.669L505.95 73.3053Z" fill="black"/>
<path d="M453.855 53.3723L455.06 77.6154L444.503 76.6957C444.325 76.6818 444.147 76.721 443.992 76.8083C443.837 76.8955 443.712 77.0269 443.633 77.1854C443.554 77.3439 443.524 77.5223 443.548 77.6977C443.572 77.873 443.648 78.0373 443.766 78.1694L455.73 91.0333L457.035 117.448L475.583 139.253L494.131 138.711L497.323 78.3467L453.855 53.3723Z" fill="#3B7BE1"/>
<path opacity="0.5" d="M475.583 72.0754L492.859 81.9698L490.315 131.63L475.583 132.716V72.0754Z" fill="white"/>
<path d="M488.752 84.4961L486.933 125.171L475.583 125.813L464.245 112.163L463.665 100.673L467.771 103.022L468.106 109.88L475.583 119.176L483.061 118.445L484.333 88.2079L462.749 75.8315L462.426 69.4051L488.752 84.4961Z" fill="white"/>
<path d="M468.597 173.136L456.578 179.972L444.492 178.864C444.352 178.854 444.211 178.873 444.079 178.92C445.05 178.355 455.585 172.372 456.02 172.139C456.173 172.054 456.348 172.019 456.522 172.039L468.597 173.136Z" fill="#3B7BE1"/>
<path d="M505.95 175.529L462.493 150.61L453.855 155.596L457.035 219.617L475.583 241.422L494.131 240.879L502.769 235.893L505.95 175.529Z" fill="#3B7BE1"/>
<path opacity="0.35" d="M505.95 175.529L497.323 180.504L494.131 240.879L502.769 235.893L505.95 175.529Z" fill="black"/>
<path d="M453.855 155.596L455.06 179.828L444.503 178.92C444.325 178.906 444.147 178.945 443.992 179.032C443.837 179.12 443.712 179.251 443.633 179.409C443.554 179.568 443.524 179.746 443.548 179.922C443.572 180.097 443.648 180.261 443.766 180.393L455.73 193.257L457.035 219.617L475.583 241.422L494.131 240.879L497.323 180.504L453.855 155.596Z" fill="#3B7BE1"/>
<path opacity="0.25" d="M453.855 155.596L455.06 179.828L444.503 178.92C444.325 178.906 444.147 178.945 443.992 179.032C443.837 179.12 443.712 179.251 443.633 179.409C443.554 179.568 443.524 179.746 443.548 179.922C443.572 180.097 443.648 180.261 443.766 180.393L455.73 193.257L457.035 219.617L475.583 241.422L494.131 240.879L497.323 180.504L453.855 155.596Z" fill="black"/>
<path opacity="0.7" d="M475.583 174.288L492.859 184.194L490.315 233.843L475.583 234.94V174.288Z" fill="#3B7BE1"/>
<path d="M462.426 171.629L462.694 178.022L484.333 190.421L483.808 203.03L463.263 191.252L463.531 197.645L483.552 209.124L483.061 220.669L475.583 221.401L468.106 212.093L467.771 205.246L463.665 202.897L464.245 214.387L475.583 228.037L486.933 227.395L488.752 186.709L462.426 171.629Z" fill="white"/>
<path d="M505.95 277.731L462.493 252.823L453.855 257.798L457.035 321.819L475.583 343.624L494.131 343.081L502.769 338.095L505.95 277.731Z" fill="#3B7BE1"/>
<path opacity="0.25" d="M505.95 277.731L497.323 282.717L453.855 257.798L462.493 252.823L505.95 277.731Z" fill="black"/>
<path opacity="0.55" d="M505.95 277.731L497.323 282.717L494.131 343.081L502.769 338.095L505.95 277.731Z" fill="black"/>
<path d="M468.597 275.338L456.578 282.174L444.492 281.122C444.351 281.109 444.209 281.132 444.079 281.188C445.05 280.623 455.585 274.629 456.02 274.396C456.175 274.317 456.349 274.282 456.522 274.296L468.597 275.338Z" fill="#3B7BE1"/>
<path opacity="0.25" d="M468.597 275.338L456.578 282.174L444.492 281.122C444.351 281.109 444.209 281.132 444.079 281.188C445.05 280.623 455.585 274.629 456.02 274.396C456.175 274.317 456.349 274.282 456.522 274.296L468.597 275.338Z" fill="black"/>
<path d="M453.855 257.798L455.06 282.041L444.503 281.122C444.325 281.108 444.147 281.147 443.992 281.234C443.837 281.322 443.712 281.453 443.633 281.611C443.554 281.77 443.524 281.948 443.548 282.124C443.572 282.299 443.648 282.463 443.766 282.595L455.73 295.459L457.035 321.819L475.583 343.624L494.131 343.081L497.323 282.717L453.855 257.798Z" fill="#3B7BE1"/>
<path opacity="0.4" d="M453.855 257.798L455.06 282.041L444.503 281.122C444.325 281.108 444.147 281.147 443.992 281.234C443.837 281.322 443.712 281.453 443.633 281.611C443.554 281.77 443.524 281.948 443.548 282.124C443.572 282.299 443.648 282.463 443.766 282.595L455.73 295.459L457.035 321.819L475.583 343.624L494.131 343.081L497.323 282.717L453.855 257.798Z" fill="black"/>
<path opacity="0.5" d="M475.583 276.501L492.859 286.396L490.315 336.056L475.583 337.142V276.501Z" fill="#3B7BE1"/>
<path d="M488.752 288.922L462.426 273.831L463.531 299.858L483.552 311.326L483.061 322.882L475.583 323.602L468.106 314.306L467.771 307.448L463.665 305.099L464.245 316.6L475.583 330.239L486.933 329.597L487.904 307.581L467.37 295.814L466.834 282.606L488.429 294.983L488.752 288.922Z" fill="white"/>
<path d="M279.346 406.835C276.221 416.098 273.543 428.065 269.302 446.092C265.34 462.978 265.318 474.9 270.82 478.999C276.322 483.099 292.091 480.595 302.068 459.499C305.193 452.851 316.944 432.519 316.944 432.519C316.944 432.519 325.649 429.405 328.651 427.068C328.651 427.068 357.667 427.91 371.773 425.04C385.879 422.17 400.878 405.096 395.098 403.39C384.719 400.354 357.064 399.201 333.639 397.706L279.346 406.835Z" fill="#37474F"/>
<path d="M357.957 421.428C351.607 422.89 342.199 420.94 336.898 419.411C337.215 417.571 337.154 415.687 336.72 413.871C336.425 416.341 335.623 418.724 334.365 420.874C333.494 421.361 332.758 421.771 332.222 422.048C328.695 423.832 319.009 428.752 317.212 427.2C314.508 423.732 310.666 421.313 306.353 420.364C309.389 422.392 318.183 428.652 315.058 435.876L316.966 432.552C316.966 432.552 325.671 429.439 328.673 427.101C328.673 427.101 344.911 427.566 358.984 426.613L375.724 415.123C375.724 415.123 367.689 414.625 357.957 421.428Z" fill="#263238"/>
<path d="M341.686 441.084C339.569 443.145 336.98 444.666 334.142 445.516C333.208 445.721 332.241 445.721 331.307 445.516C328.048 444.84 322.825 444.851 320.995 451.311C318.93 458.634 310.683 462.114 308.485 467.133C307.369 469.637 306.811 476.894 307.882 481.36C308.775 485.016 315.906 482.301 318.551 477.836C321.196 473.371 326.865 467.487 330.604 464.097C336.686 460.695 343.438 455.709 346.317 453.704L341.686 441.084Z" fill="#F28F8F"/>
<path d="M384.585 400.897C403.3 402.138 403.936 411.977 399.26 419.467C394.227 427.5 375.824 438.303 365.78 444.02C356.618 449.261 340.983 458.546 340.983 458.546C340.983 458.546 333.07 452.407 334.097 445.505C344.453 438.336 358.403 417.927 375.668 415.09L384.585 400.897Z" fill="#263238"/>
<path d="M310.706 483.609C309.629 483.769 308.531 483.515 307.637 482.9C306.8 482.312 304.947 477.138 306.521 470.867C307.672 466.211 310.061 461.948 313.44 458.524C315.482 456.374 316.219 453.903 316.955 450.768C317.692 447.632 319.991 443.787 321.587 443.355C323.182 442.923 325.604 444.153 325.604 444.153L310.706 483.609Z" fill="#263238"/>
<path d="M335.38 461.449C334.99 463.443 333.338 463.953 331.564 464.651C329.142 465.604 326.843 468.086 324.656 470.856C323.171 472.739 321.944 474.623 320.593 476.595C319.243 478.567 318.105 481.415 316.654 482.922C314.522 485.138 310.215 484.717 309.032 481.581C308.005 478.878 307.57 472.163 310.672 465.737C312.368 462.224 317.056 458.823 318.283 454.047C319.098 450.856 320.225 447.056 322.591 444.629C323.997 443.189 325.281 443.521 327.055 444.031C329.387 444.671 331.758 445.163 334.153 445.505C334.101 447.474 333.502 449.391 332.423 451.045C331.997 451.571 331.692 452.184 331.53 452.84C331.487 453.294 331.529 453.752 331.653 454.191C331.787 454.812 332.01 455.532 332.624 455.709C332.879 455.744 333.136 455.763 333.394 455.765C334.354 455.887 334.822 456.984 335.068 457.914C335.381 458.914 335.513 459.96 335.458 461.006C335.441 461.155 335.415 461.303 335.38 461.449Z" fill="#3B7BE1"/>
<path opacity="0.4" d="M335.38 461.449C334.99 463.443 333.338 463.953 331.564 464.651C329.142 465.604 326.843 468.086 324.656 470.856C323.171 472.739 321.944 474.623 320.593 476.595C319.243 478.567 318.105 481.415 316.654 482.922C314.522 485.138 310.215 484.717 309.032 481.581C308.005 478.878 307.57 472.163 310.672 465.737C312.368 462.224 317.056 458.823 318.283 454.047C319.098 450.856 320.225 447.056 322.591 444.629C323.997 443.189 325.281 443.521 327.055 444.031C329.387 444.671 331.758 445.163 334.153 445.505C334.101 447.474 333.502 449.391 332.423 451.045C331.997 451.571 331.692 452.184 331.53 452.84C331.487 453.294 331.529 453.752 331.653 454.191C331.787 454.812 332.01 455.532 332.624 455.709C332.879 455.744 333.136 455.763 333.394 455.765C334.354 455.887 334.822 456.984 335.068 457.914C335.381 458.914 335.513 459.96 335.458 461.006C335.441 461.155 335.415 461.303 335.38 461.449Z" fill="black"/>
<path d="M326.843 468.274C327.308 468.127 327.729 467.867 328.066 467.516C328.404 467.166 328.647 466.737 328.774 466.269C329.276 464.917 328.673 462.258 327.658 460.507C327.575 460.33 327.447 460.177 327.286 460.065C327.125 459.953 326.937 459.885 326.741 459.868C326.545 459.851 326.348 459.886 326.17 459.969C325.992 460.052 325.839 460.18 325.727 460.341C325.576 460.528 325.486 460.757 325.47 460.997C325.454 461.237 325.513 461.476 325.638 461.681C326.893 463.638 327.325 466.005 326.843 468.274Z" fill="#F5F5F5"/>
<path d="M323.64 472.185C324.126 471.956 324.549 471.614 324.874 471.187C325.198 470.761 325.414 470.263 325.504 469.737C325.786 467.566 325.368 465.363 324.31 463.443C324.223 463.278 324.096 463.137 323.94 463.033C323.785 462.929 323.605 462.866 323.418 462.85C323.231 462.833 323.043 462.863 322.871 462.938C322.699 463.013 322.549 463.129 322.435 463.277C322.288 463.456 322.202 463.677 322.188 463.907C322.174 464.138 322.233 464.367 322.357 464.562C323.136 465.654 323.657 466.907 323.879 468.228C324.101 469.548 324.02 470.901 323.64 472.185Z" fill="#F5F5F5"/>
<path d="M320.593 476.595C321.053 476.316 321.448 475.942 321.75 475.499C322.052 475.055 322.255 474.553 322.345 474.025C322.583 471.923 322.141 469.8 321.084 467.964C320.998 467.798 320.871 467.657 320.715 467.554C320.559 467.45 320.38 467.387 320.193 467.37C320.006 467.354 319.818 467.384 319.646 467.459C319.474 467.533 319.324 467.65 319.209 467.798C319.061 467.978 318.973 468.2 318.959 468.433C318.945 468.666 319.005 468.897 319.131 469.094C319.951 470.143 320.51 471.368 320.764 472.671C321.018 473.974 320.96 475.319 320.593 476.595Z" fill="#F5F5F5"/>
<path d="M334.22 443.832C337.568 443.001 342.411 441.826 344.42 439.189C346.429 436.552 350.614 434.004 356.261 437.693C359.832 440.031 364.073 440.796 368.313 441.073C370.2 441.028 372.087 441.117 373.96 441.339C376.19 441.944 378.302 442.914 380.21 444.208C381.418 444.882 382.477 445.79 383.324 446.879C384.013 447.898 384.389 449.093 384.407 450.321C384.425 451.548 384.084 452.754 383.424 453.792C383.194 454.166 382.895 454.493 382.543 454.756C382.102 455.064 381.599 455.272 381.069 455.366C379.116 455.798 377.487 455.189 375.646 454.679C374.117 454.258 372.554 453.937 371.003 453.66C367.472 453.003 363.9 452.588 360.312 452.419C358.783 452.363 355.602 452.119 354.073 452.23C347.69 452.662 338.661 456.23 338.661 456.23L334.22 443.832Z" fill="#FFA8A7"/>
<path d="M267.84 474.224C268.889 480.628 276.132 483.72 291.655 480.639C307.179 477.559 344.107 454.457 344.107 454.457C344.107 454.457 342.668 445.593 334.175 443.222C334.175 443.222 326.452 444.618 313.842 447.344C308.156 448.585 302.542 450.127 297.023 451.964C288.497 463.321 279.636 458.734 276.444 462.723C271.188 469.36 267.84 474.224 267.84 474.224Z" fill="#37474F"/>
<path d="M385.02 454.147C385.938 453.561 386.597 452.65 386.861 451.599C387.096 450.613 385.065 445.516 379.73 441.793C375.774 439.049 371.15 437.408 366.338 437.04C363.381 436.763 361.182 435.389 358.526 433.527C355.87 431.666 351.618 430.27 350.123 430.99C348.627 431.71 347.634 434.214 347.634 434.214L385.02 454.147Z" fill="#263238"/>
<path d="M351.774 453.615C353.393 454.856 354.977 454.158 356.774 453.527C359.229 452.662 362.611 453.017 366.093 453.671C368.459 454.114 370.635 454.779 372.956 455.333C375.277 455.887 378.023 457.327 380.121 457.549C383.179 457.803 386.147 454.679 384.964 451.554C383.937 448.851 379.808 443.51 373.202 440.707C369.608 439.178 363.827 439.677 359.731 436.895C356.997 435.034 353.627 432.896 350.234 432.63C348.225 432.463 347.489 433.571 346.485 435.089C345.157 437.099 343.703 439.023 342.132 440.851C343.485 442.307 345.214 443.365 347.132 443.909C347.799 444.03 348.433 444.286 348.996 444.663C349.326 444.983 349.598 445.358 349.799 445.771C350.112 446.313 350.413 447.012 350.067 447.543C349.9 447.735 349.721 447.916 349.531 448.086C348.895 448.818 349.275 449.937 349.699 450.801C350.131 451.757 350.727 452.63 351.462 453.383C351.561 453.466 351.666 453.544 351.774 453.615Z" fill="#3B7BE1"/>
<path opacity="0.4" d="M351.774 453.615C353.393 454.856 354.977 454.158 356.774 453.527C359.229 452.662 362.611 453.017 366.093 453.671C368.459 454.114 370.635 454.779 372.956 455.333C375.277 455.887 378.023 457.327 380.121 457.549C383.179 457.803 386.147 454.679 384.964 451.554C383.937 448.851 379.808 443.51 373.202 440.707C369.608 439.178 363.827 439.677 359.731 436.895C356.997 435.034 353.627 432.896 350.234 432.63C348.225 432.463 347.489 433.571 346.485 435.089C345.157 437.099 343.703 439.023 342.132 440.851C343.485 442.307 345.214 443.365 347.132 443.909C347.799 444.03 348.433 444.286 348.996 444.663C349.326 444.983 349.598 445.358 349.799 445.771C350.112 446.313 350.413 447.012 350.067 447.543C349.9 447.735 349.721 447.916 349.531 448.086C348.895 448.818 349.275 449.937 349.699 450.801C350.131 451.757 350.727 452.63 351.462 453.383C351.561 453.466 351.666 453.544 351.774 453.615Z" fill="black"/>
<path d="M362.7 453.172C362.253 453.366 361.765 453.446 361.279 453.403C360.793 453.361 360.326 453.197 359.921 452.928C358.638 452.241 357.332 449.848 356.93 447.865C356.875 447.677 356.87 447.477 356.917 447.287C356.965 447.097 357.062 446.922 357.199 446.782C357.336 446.641 357.509 446.539 357.699 446.486C357.889 446.433 358.09 446.431 358.281 446.48C358.517 446.521 358.734 446.634 358.904 446.802C359.074 446.971 359.187 447.187 359.229 447.421C359.583 449.716 360.829 451.78 362.7 453.172Z" fill="#F5F5F5"/>
<path d="M367.744 454.014C367.225 454.16 366.677 454.178 366.148 454.068C365.62 453.958 365.126 453.723 364.709 453.383C363.051 451.928 361.902 449.988 361.428 447.843C361.391 447.667 361.398 447.484 361.448 447.312C361.498 447.139 361.589 446.981 361.715 446.851C361.84 446.721 361.995 446.624 362.167 446.567C362.338 446.51 362.521 446.495 362.7 446.524C362.928 446.565 363.138 446.676 363.3 446.84C363.462 447.005 363.568 447.216 363.604 447.444C363.753 448.777 364.203 450.06 364.92 451.197C365.637 452.335 366.602 453.297 367.744 454.014Z" fill="#F5F5F5"/>
<path d="M372.956 455.388C372.425 455.479 371.88 455.456 371.358 455.32C370.836 455.185 370.35 454.939 369.932 454.601C368.359 453.175 367.285 451.289 366.863 449.216C366.818 449.036 366.82 448.847 366.868 448.668C366.916 448.488 367.009 448.324 367.138 448.189C367.267 448.055 367.428 447.954 367.606 447.898C367.784 447.841 367.974 447.83 368.157 447.865C368.388 447.904 368.6 448.013 368.764 448.178C368.928 448.343 369.036 448.555 369.072 448.784C369.155 450.11 369.549 451.398 370.224 452.544C370.898 453.691 371.834 454.665 372.956 455.388Z" fill="#F5F5F5"/>
<path d="M307.782 448.74C307.782 448.74 297.358 450.768 289.624 455.931C289.624 455.931 297.57 446.69 309.846 445.039L307.782 448.74Z" fill="#263238"/>
<path d="M346.819 369.828L333.829 333.397L330.403 334.616L332.456 374.859L334.688 380.842C340.503 377.828 345.246 375.612 346.819 369.828Z" fill="#FFA8A7"/>
<path d="M316.263 323.824C324.31 323.913 331.653 326.816 334.7 333.076C337.746 339.336 347.076 367.778 347.076 367.778C347.076 367.778 339.42 376.72 328.104 376L316.263 323.824Z" fill="#3B7BE1"/>
<path opacity="0.1" d="M316.263 323.824C324.31 323.913 331.653 326.816 334.7 333.076C337.746 339.336 347.076 367.778 347.076 367.778C347.076 367.778 339.42 376.72 328.104 376L316.263 323.824Z" fill="black"/>
<path d="M299.758 324.312C288.475 326.384 280.953 328.744 278.821 330.838C274.023 340.599 280.261 373.318 280.261 373.318L281.377 388.886L279.391 406.835C291.588 417.073 328.919 412.043 335.57 397.706C335.57 397.706 333.706 351.037 333.706 342.76C333.706 334.483 329.086 324.566 316.308 323.824L299.758 324.312Z" fill="#FAFAFA"/>
<path d="M291.544 399.8C288.274 394.825 288.408 382.171 288.408 382.171C288.408 382.171 294.122 349.153 292.805 341.286L277.728 355.668C278.688 365.119 280.261 373.396 280.261 373.396L281.377 388.963L279.391 406.913C289.144 415.101 314.969 413.561 328.327 405.218C308.719 412.941 294.803 404.775 291.544 399.8Z" fill="#EBEBEB"/>
<path d="M293.508 298.052C293.508 298.052 295.204 310.473 296.108 312.556C296.715 313.845 297.798 314.852 299.133 315.37L299.601 306.761L293.508 298.052Z" fill="#263238"/>
<path d="M298.139 280.734C297.231 280.557 296.295 280.589 295.401 280.827C294.507 281.065 293.68 281.503 292.983 282.108C290.662 284.136 291.354 291.083 293.53 297.997L298.43 298.927L298.139 280.734Z" fill="#263238"/>
<path d="M299.903 299.038C298.876 299.548 297.604 297.564 296.477 296.202C295.349 294.839 291.499 292.811 289.2 296.822C286.901 300.833 290.205 306.794 293.274 308.002C298.552 310.085 299.624 306.705 299.624 306.705L298.508 326.472C303.407 337.065 322.959 333.286 316.286 326.007L316.643 320.988C319.344 321.383 322.07 321.586 324.801 321.597C328.829 321.276 330.66 318.672 332.189 314.484C334.644 307.769 335.804 302.296 335.168 288.656C334.488 273.731 317.167 272.291 307.369 277.443C297.57 282.595 299.903 299.038 299.903 299.038Z" fill="#FFA8A7"/>
<path d="M299.557 272.701C302.945 271.552 306.453 270.783 310.014 270.407C317.692 269.299 325.504 268.413 332.668 265.455C333.513 264.995 334.477 264.798 335.436 264.89C337.244 265.255 337.869 267.504 337.802 269.322C337.746 271.018 337.399 272.693 336.775 274.274C337.364 273.79 338.121 273.556 338.882 273.624C339.644 273.693 340.347 274.058 340.838 274.64C341.301 275.244 341.62 275.946 341.769 276.691C341.917 277.436 341.893 278.205 341.697 278.939C341.249 280.585 340.405 282.099 339.239 283.352C338.073 284.604 336.619 285.557 335.001 286.13C331.758 287.254 328.31 287.673 324.89 287.36C320.111 287.141 315.369 286.428 310.739 285.232C309.635 284.871 308.475 284.702 307.313 284.734C306.729 284.754 306.163 284.937 305.679 285.262C305.195 285.588 304.814 286.042 304.579 286.573C303.943 288.401 302.458 301.066 299.825 300.977C299.334 300.977 297.715 297.653 296.577 296.39C295.16 294.839 294.445 283.836 294.345 281.809C294.319 281.65 294.258 281.499 294.166 281.366C292.626 278.839 294.948 274.961 297.168 273.809C297.944 273.396 298.741 273.027 299.557 272.701Z" fill="#263238"/>
<path d="M295.104 281.565C294.429 282.242 293.511 282.626 292.551 282.631C291.592 282.636 290.669 282.263 289.987 281.593C289.305 280.923 288.919 280.011 288.913 279.058C288.908 278.106 289.284 277.19 289.959 276.512L295.104 281.565Z" fill="#263238"/>
<path d="M316.631 320.988C316.631 320.988 307.826 319.481 304.847 317.664C303.094 316.583 301.71 315.004 300.874 313.132C301.204 314.97 301.906 316.723 302.938 318.284C304.992 321.331 316.386 324.312 316.386 324.312L316.631 320.988Z" fill="#F28F8F"/>
<path d="M317.524 298.052C317.484 298.397 317.342 298.723 317.117 298.989C316.892 299.255 316.592 299.449 316.257 299.548C315.921 299.646 315.564 299.645 315.229 299.543C314.894 299.441 314.597 299.244 314.374 298.976C314.151 298.709 314.012 298.381 313.975 298.036C313.938 297.69 314.004 297.341 314.165 297.033C314.326 296.724 314.574 296.469 314.88 296.3C315.186 296.13 315.535 296.054 315.884 296.08C316.122 296.102 316.354 296.171 316.565 296.282C316.777 296.393 316.964 296.545 317.116 296.728C317.269 296.911 317.383 297.122 317.453 297.35C317.523 297.577 317.547 297.815 317.524 298.052Z" fill="#263238"/>
<path d="M316.14 291.227L312.179 293.033C311.945 292.494 311.931 291.885 312.139 291.336C312.347 290.787 312.761 290.338 313.295 290.085C313.556 289.97 313.839 289.907 314.125 289.902C314.412 289.897 314.696 289.949 314.962 290.056C315.227 290.162 315.469 290.321 315.671 290.522C315.874 290.723 316.033 290.963 316.14 291.227Z" fill="#263238"/>
<path d="M316.632 310.329L320.582 312.146C320.471 312.408 320.307 312.646 320.102 312.845C319.896 313.044 319.652 313.199 319.384 313.303C319.117 313.406 318.831 313.455 318.544 313.447C318.257 313.438 317.975 313.373 317.714 313.254C317.182 313.006 316.77 312.56 316.567 312.012C316.365 311.464 316.388 310.86 316.632 310.329Z" fill="#F28F8F"/>
<path d="M333.282 294.019L330.012 291.105C330.192 290.884 330.415 290.701 330.669 290.569C330.922 290.436 331.2 290.357 331.485 290.335C331.77 290.313 332.057 290.35 332.328 290.442C332.599 290.534 332.847 290.681 333.059 290.872C333.495 291.269 333.761 291.816 333.802 292.401C333.844 292.987 333.658 293.566 333.282 294.019Z" fill="#263238"/>
<path d="M331.865 298.628C331.825 298.973 331.683 299.299 331.458 299.565C331.232 299.831 330.933 300.025 330.597 300.124C330.262 300.222 329.904 300.221 329.569 300.119C329.235 300.018 328.937 299.821 328.714 299.553C328.492 299.285 328.353 298.958 328.316 298.612C328.279 298.266 328.345 297.918 328.505 297.609C328.666 297.3 328.915 297.045 329.221 296.876C329.526 296.707 329.875 296.63 330.224 296.656C330.704 296.704 331.146 296.938 331.453 297.307C331.761 297.676 331.909 298.151 331.865 298.628Z" fill="#263238"/>
<path d="M322.792 296.811L322.569 307.47L328.305 305.996L322.792 296.811Z" fill="#F28F8F"/>
<path d="M265.787 405.428C258.555 398.204 257.394 395.844 258.376 391.335C260.318 382.471 268.253 354.095 271.266 345.663C275.049 335.07 276.735 330.838 283.029 329.475C288.107 333.464 293.073 348.399 286.243 361.851L278.007 391.213" fill="#FFA8A7"/>
<path d="M288.43 326.86C278.71 327.968 274.592 331.868 271.088 342.294C267.583 352.721 261.423 376.72 261.423 376.72C261.423 376.72 269.581 385.495 281.02 384.576L290.551 353.219C290.551 353.219 297.258 330.417 288.43 326.86Z" fill="#3B7BE1"/>
<path opacity="0.1" d="M288.43 326.86C278.71 327.968 274.592 331.868 271.088 342.294C267.583 352.721 261.423 376.72 261.423 376.72C261.423 376.72 269.581 385.495 281.02 384.576L290.551 353.219C290.551 353.219 297.258 330.417 288.43 326.86Z" fill="black"/>
<path d="M286.176 434.868V435.976C286.179 436.532 286.327 437.078 286.607 437.56C286.887 438.042 287.288 438.443 287.772 438.724L318.194 456.097C318.678 456.373 319.226 456.518 319.784 456.518C320.342 456.518 320.891 456.373 321.375 456.097L377.175 424.109C377.66 423.833 378.064 423.435 378.344 422.954C378.624 422.474 378.771 421.928 378.77 421.372V420.597L319.79 454.413L286.176 434.868Z" fill="#EBEBEB"/>
<path d="M378.77 420.608L345.692 401.65C345.403 401.481 345.073 401.393 344.738 401.393C344.403 401.393 344.073 401.481 343.784 401.65L286.388 434.547C286.323 434.583 286.269 434.637 286.231 434.701C286.194 434.765 286.174 434.838 286.174 434.912C286.174 434.986 286.194 435.059 286.231 435.124C286.269 435.188 286.323 435.241 286.388 435.278L319.79 454.424L378.77 420.608Z" fill="#FAFAFA"/>
<path d="M364.061 401.395C359.519 393.395 346.819 369.828 346.819 369.828L334.7 380.908C339.643 390.193 353.069 408.874 353.069 408.874C359.24 412.874 366.673 406.004 364.061 401.395Z" fill="#FFA8A7"/>
<path d="M319.477 451.632L301.632 441.416L353.817 411.511L371.751 421.672L319.477 451.632Z" fill="#E0E0E0"/>
<path d="M310.717 423.212L311.04 423.4L319.79 428.408L335.347 419.5L335.659 419.312L326.586 414.115L310.717 423.212Z" fill="#E0E0E0"/>
<path d="M311.04 423.4L319.79 428.408L335.347 419.5L326.586 414.481L311.04 423.4Z" fill="#E6E6E6"/>
<path d="M319.79 454.424V456.496C320.347 456.499 320.894 456.354 321.375 456.075L377.175 424.087C377.66 423.811 378.064 423.413 378.344 422.932C378.624 422.451 378.771 421.906 378.77 421.35V420.575L319.79 454.424Z" fill="#EBEBEB"/>
<path d="M319.79 454.424V456.496C320.347 456.499 320.894 456.354 321.375 456.075L377.175 424.087C377.66 423.811 378.064 423.413 378.344 422.932C378.624 422.451 378.771 421.906 378.77 421.35V420.575L319.79 454.424Z" fill="#E0E0E0"/>
<path d="M320.683 454.889C321.209 455.095 321.776 455.18 322.34 455.137C322.904 455.095 323.452 454.927 323.941 454.646L379.496 422.791C379.978 422.517 380.394 422.14 380.712 421.688C381.03 421.236 381.244 420.72 381.337 420.176L387.419 384.166C387.436 383.959 387.436 383.752 387.419 383.545C387.42 383.051 387.322 382.561 387.13 382.105C386.939 381.648 386.657 381.234 386.303 380.886L328.573 413.982C328.216 414.186 327.909 414.465 327.673 414.8C327.438 415.135 327.28 415.518 327.211 415.921L320.683 454.889Z" fill="#3B7BE1"/>
<g opacity="0.7">
<path opacity="0.7" d="M320.683 454.889C321.209 455.095 321.776 455.18 322.34 455.137C322.904 455.095 323.452 454.927 323.941 454.646L379.496 422.791C379.978 422.517 380.394 422.14 380.712 421.688C381.03 421.236 381.244 420.72 381.337 420.176L387.419 384.166C387.436 383.959 387.436 383.752 387.419 383.545C387.42 383.051 387.322 382.561 387.13 382.105C386.939 381.648 386.657 381.234 386.303 380.886L328.573 413.982C328.216 414.186 327.909 414.465 327.673 414.8C327.438 415.135 327.28 415.518 327.211 415.921L320.683 454.889Z" fill="white"/>
</g>
<path d="M319.79 454.424L320.169 454.646C320.335 454.738 320.506 454.819 320.683 454.889L327.256 415.921C327.325 415.518 327.482 415.135 327.718 414.8C327.953 414.465 328.26 414.186 328.617 413.982L386.348 380.886C386.118 380.658 385.86 380.46 385.578 380.299L327.725 413.461C327.369 413.665 327.063 413.944 326.829 414.28C326.596 414.615 326.44 414.998 326.374 415.4L319.79 454.424Z" fill="#FAFAFA"/>
<path d="M351.975 421.649C352.377 419.234 354.888 416.032 357.555 414.492C360.223 412.952 362.086 413.661 361.673 416.076C361.26 418.492 358.761 421.683 356.093 423.223C353.426 424.763 351.54 424.065 351.975 421.649Z" fill="#3B7BE1"/>
<path d="M278.007 391.213C278.007 391.213 282.181 398.093 287.002 404.509C291.823 410.924 297.046 417.683 300.952 418.824C304.623 419.932 308.931 421.184 310.181 422.325C313.184 425.35 315.98 428.571 318.551 431.965C319.667 433.86 322.468 437.715 318.551 438.945C314.969 440.053 312.045 438.546 309.143 436.563C307.775 435.591 306.474 434.528 305.248 433.383C302.342 433.7 299.407 433.119 296.845 431.721C294.613 430.48 290.93 428.308 290.93 428.308C287.872 426.225 272.683 412.265 265.787 405.395" fill="#FFA8A7"/>
</svg>
