<svg width="46" height="47" viewBox="0 0 46 47" fill="none" xmlns="http://www.w3.org/2000/svg">
<path d="M15.3859 37.5937C15.3859 37.7832 15.1726 37.9348 14.9036 37.9348C14.5976 37.9632 14.3843 37.8116 14.3843 37.5937C14.3843 37.4042 14.5976 37.2526 14.8665 37.2526C15.1448 37.2242 15.3859 37.3757 15.3859 37.5937ZM12.5016 37.1673C12.4367 37.3568 12.6222 37.5747 12.9004 37.6316C13.1415 37.7263 13.4198 37.6316 13.4754 37.4421C13.531 37.2526 13.3548 37.0347 13.0766 36.9494C12.8355 36.8831 12.5665 36.9778 12.5016 37.1673ZM16.6008 37.0062C16.3319 37.0726 16.1464 37.2526 16.1742 37.4705C16.202 37.66 16.4431 37.7832 16.7214 37.7168C16.9903 37.6505 17.1758 37.4705 17.148 37.281C17.1202 37.101 16.8698 36.9778 16.6008 37.0062ZM22.7032 0.699219C9.83992 0.699219 0 10.6761 0 23.8175C0 34.3249 6.47339 43.3164 15.7198 46.4809C16.9069 46.6988 17.3242 45.9503 17.3242 45.3345C17.3242 44.7471 17.2964 41.5067 17.2964 39.517C17.2964 39.517 10.8044 40.9382 9.44113 36.6936C9.44113 36.6936 8.38387 33.9364 6.8629 33.2258C6.8629 33.2258 4.73911 31.7383 7.01129 31.7667C7.01129 31.7667 9.32056 31.9562 10.5911 34.2112C12.6222 37.8684 16.0258 36.8167 17.352 36.1914C17.5653 34.6755 18.1681 33.6238 18.8359 32.9984C13.6516 32.411 8.42097 31.6436 8.42097 22.5289C8.42097 19.9234 9.12581 18.6159 10.6097 16.9483C10.3685 16.3325 9.58024 13.7932 10.8508 10.515C12.7891 9.89914 17.25 13.0732 17.25 13.0732C19.1048 12.5426 21.0988 12.2678 23.0742 12.2678C25.0496 12.2678 27.0435 12.5426 28.8984 13.0732C28.8984 13.0732 33.3593 9.88967 35.2976 10.515C36.5681 13.8027 35.7798 16.3325 35.5387 16.9483C37.0226 18.6253 37.9315 19.9328 37.9315 22.5289C37.9315 31.672 32.469 32.4015 27.2847 32.9984C28.1379 33.7469 28.8613 35.1681 28.8613 37.3947C28.8613 40.5877 28.8335 44.5386 28.8335 45.3155C28.8335 45.9314 29.2601 46.6799 30.4379 46.462C39.7121 43.3164 46 34.3249 46 23.8175C46 10.6761 35.5665 0.699219 22.7032 0.699219ZM9.01452 33.3774C8.89395 33.4722 8.92177 33.6901 9.07944 33.8701C9.22782 34.0217 9.44113 34.088 9.56169 33.9649C9.68226 33.8701 9.65444 33.6522 9.49677 33.4722C9.34839 33.3206 9.13508 33.2543 9.01452 33.3774ZM8.0129 32.61C7.94798 32.7331 8.04073 32.8847 8.22621 32.9795C8.3746 33.0742 8.56008 33.0458 8.625 32.9132C8.68992 32.79 8.59718 32.6384 8.41169 32.5437C8.22621 32.4868 8.07782 32.5152 8.0129 32.61ZM11.0177 35.983C10.8694 36.1061 10.925 36.3904 11.1383 36.5704C11.3516 36.7883 11.6206 36.8167 11.7411 36.6651C11.8617 36.542 11.806 36.2577 11.6206 36.0777C11.4165 35.8598 11.1383 35.8314 11.0177 35.983ZM9.96048 34.5902C9.8121 34.6849 9.8121 34.9313 9.96048 35.1492C10.1089 35.3671 10.3593 35.4619 10.4798 35.3671C10.6282 35.2439 10.6282 34.9976 10.4798 34.7797C10.35 34.5618 10.1089 34.467 9.96048 34.5902Z" fill="white"/>
</svg>
