<svg width="46" height="46" viewBox="0 0 46 46" fill="none" xmlns="http://www.w3.org/2000/svg">
<path d="M23.0051 11.178C16.4784 11.178 11.2139 16.4231 11.2139 22.9258C11.2139 29.4285 16.4784 34.6735 23.0051 34.6735C29.5318 34.6735 34.7963 29.4285 34.7963 22.9258C34.7963 16.4231 29.5318 11.178 23.0051 11.178ZM23.0051 30.5634C18.7874 30.5634 15.3393 27.1382 15.3393 22.9258C15.3393 18.7134 18.7771 15.2882 23.0051 15.2882C27.2331 15.2882 30.6709 18.7134 30.6709 22.9258C30.6709 27.1382 27.2229 30.5634 23.0051 30.5634ZM38.0289 10.6975C38.0289 12.2209 36.7974 13.4376 35.2786 13.4376C33.7496 13.4376 32.5284 12.2107 32.5284 10.6975C32.5284 9.18429 33.7598 7.95737 35.2786 7.95737C36.7974 7.95737 38.0289 9.18429 38.0289 10.6975ZM45.8384 13.4785C45.6639 9.80797 44.8224 6.55664 42.1235 3.87786C39.4348 1.19909 36.1714 0.360696 32.4873 0.176658C28.6904 -0.0380527 17.3096 -0.0380527 13.5127 0.176658C9.83882 0.350472 6.57546 1.18887 3.87652 3.86764C1.17758 6.54641 0.346347 9.79775 0.161629 13.4683C-0.0538762 17.2513 -0.0538762 28.5901 0.161629 32.3731C0.336085 36.0436 1.17758 39.2949 3.87652 41.9737C6.57546 44.6525 9.82856 45.4909 13.5127 45.6749C17.3096 45.8896 28.6904 45.8896 32.4873 45.6749C36.1714 45.5011 39.4348 44.6627 42.1235 41.9737C44.8122 39.2949 45.6537 36.0436 45.8384 32.3731C46.0539 28.5901 46.0539 17.2615 45.8384 13.4785ZM40.9331 36.4321C40.1326 38.4361 38.583 39.98 36.5614 40.7877C33.5341 41.9839 26.3506 41.7079 23.0051 41.7079C19.6597 41.7079 12.4659 41.9737 9.44886 40.7877C7.43748 39.9902 5.8879 38.4463 5.07719 36.4321C3.87652 33.4159 4.1536 26.2589 4.1536 22.9258C4.1536 19.5927 3.88678 12.4254 5.07719 9.41945C5.87764 7.41548 7.42722 5.87161 9.44886 5.06389C12.4762 3.86764 19.6597 4.1437 23.0051 4.1437C26.3506 4.1437 33.5443 3.87786 36.5614 5.06389C38.5728 5.86138 40.1224 7.40526 40.9331 9.41945C42.1337 12.4356 41.8567 19.5927 41.8567 22.9258C41.8567 26.2589 42.1337 33.4262 40.9331 36.4321Z" fill="white"/>
</svg>
