<svg width="46" height="47" viewBox="0 0 46 47" fill="none" xmlns="http://www.w3.org/2000/svg">
<path d="M42.7143 0.893188H3.27545C1.4683 0.893188 0 2.37621 0 4.19675V43.4099C0 45.2305 1.4683 46.7135 3.27545 46.7135H42.7143C44.5214 46.7135 46 45.2305 46 43.4099V4.19675C46 2.37621 44.5214 0.893188 42.7143 0.893188ZM13.9027 40.1677H7.08482V18.3008H13.9129V40.1677H13.9027ZM10.4937 15.3143C8.3067 15.3143 6.54063 13.5449 6.54063 11.3766C6.54063 9.20835 8.3067 7.43895 10.4937 7.43895C12.6705 7.43895 14.4469 9.20835 14.4469 11.3766C14.4469 13.5551 12.6808 15.3143 10.4937 15.3143ZM39.4594 40.1677H32.6415V29.5309C32.6415 26.9944 32.5902 23.7318 29.0991 23.7318C25.5464 23.7318 25.0022 26.4932 25.0022 29.3468V40.1677H18.1844V18.3008H24.725V21.2873H24.8174C25.7313 19.5691 27.9594 17.7587 31.2759 17.7587C38.1759 17.7587 39.4594 22.2896 39.4594 28.1808V40.1677Z" fill="white"/>
</svg>
