<svg width="150" height="158" viewBox="0 0 150 158" fill="none" xmlns="http://www.w3.org/2000/svg">
<g clip-path="url(#clip0)">
<path d="M134.855 0H15.311C7.29853 0 0.803162 6.87212 0.803162 15.3493V141.828C0.803162 150.305 7.29853 157.177 15.311 157.177H134.855C142.868 157.177 149.363 150.305 149.363 141.828V15.3493C149.363 6.87212 142.868 0 134.855 0Z" fill="#3178C6"/>
<path fill-rule="evenodd" clip-rule="evenodd" d="M92.765 125.073V140.441C95.1263 141.722 97.9191 142.682 101.143 143.323C104.368 143.963 107.766 144.283 111.338 144.283C114.82 144.283 118.127 143.931 121.26 143.227C124.394 142.523 127.141 141.362 129.502 139.745C131.864 138.128 133.733 136.015 135.11 133.406C136.488 130.796 137.177 127.571 137.177 123.729C137.177 120.943 136.783 118.502 135.996 116.405C135.209 114.308 134.074 112.443 132.59 110.81C131.107 109.177 129.328 107.712 127.254 106.416C125.181 105.119 122.842 103.895 120.238 102.742C118.331 101.91 116.621 101.101 115.107 100.317C113.593 99.5322 112.307 98.7319 111.247 97.9157C110.187 97.0991 109.37 96.2346 108.795 95.3222C108.22 94.4096 107.932 93.3772 107.932 92.2244C107.932 91.1681 108.189 90.2155 108.704 89.367C109.219 88.5185 109.945 87.7903 110.884 87.1819C111.822 86.5738 112.973 86.1013 114.335 85.7651C115.698 85.429 117.211 85.2611 118.876 85.2611C120.087 85.2611 121.366 85.3572 122.713 85.549C124.06 85.7412 125.415 86.0374 126.778 86.4374C128.14 86.8378 129.464 87.3421 130.751 87.9503C132.038 88.5587 133.226 89.2629 134.316 90.0636V75.704C132.106 74.8076 129.691 74.1433 127.073 73.711C124.454 73.2788 121.449 73.0627 118.059 73.0627C114.607 73.0627 111.338 73.455 108.25 74.2394C105.162 75.0237 102.445 76.2483 100.099 77.9131C97.7525 79.5782 95.8984 81.6991 94.5361 84.2766C93.1739 86.8537 92.4926 89.9352 92.4926 93.5212C92.4926 98.0995 93.7414 102.006 96.2391 105.239C98.7364 108.473 102.528 111.21 107.614 113.452C109.612 114.316 111.474 115.164 113.2 115.997C114.925 116.829 116.417 117.694 117.673 118.59C118.929 119.487 119.92 120.463 120.647 121.52C121.374 122.576 121.737 123.777 121.737 125.122C121.737 126.114 121.51 127.034 121.056 127.883C120.602 128.732 119.913 129.468 118.99 130.092C118.066 130.716 116.916 131.205 115.539 131.557C114.161 131.909 112.549 132.085 110.702 132.085C107.554 132.085 104.436 131.501 101.348 130.332C98.2597 129.164 95.3988 127.411 92.765 125.073ZM68.3458 87.2092H86.9796V74.5976H35.0416V87.2092H53.5843V143.362H68.3458V87.2092Z" fill="white"/>
</g>
<defs>
<clipPath id="clip0">
<rect width="148.56" height="157.177" fill="white" transform="translate(0.803162)"/>
</clipPath>
</defs>
</svg>
